<svg xmlns="http://www.w3.org/2000/svg" width="113" height="70" fill="none"><g clip-path="url(#a)"><mask id="b" width="107" height="35" x="3" y="0" maskUnits="userSpaceOnUse" style="mask-type:luminance"><path fill="#fff" d="M109.388.637H3.318v33.995h106.07z"/></mask><g fill-rule="evenodd" clip-rule="evenodd" mask="url(#b)"><path fill="#005AAB" d="M11.372 5.88c.3.472 1.567 4.724 1.739 5.561l-3.434-.021zM22.662.768c-1.674.493-1.653 2.233-1.653 4.101 0 3.028-.129 8.719 0 11.382.15 3.135 3.649 3.457 4.529 1.009.364-1.01.214-7 .214-8.31 0-1.826.086-3.888 0-5.691-.107-1.654-1.223-3.05-3.09-2.491m6.095 4.896c-2.64.021-2.704 3.006 0 3.2v6.141c0 .988-.107 1.869.3 2.685.86 1.61 3.328 1.46 4.014.064.644-1.289.022-6.442.322-8.89 1.438 0 2.94-.043 2.919-1.633-.043-1.589-1.438-1.567-2.94-1.567 0-.988-.108-1.568.944-1.675.923-.086 1.631.214 2.039-.494.751-1.31-.3-2.491-2.168-2.77-1.63-.237-3.24.107-4.292.859-1.202.88-1.138 2.684-1.138 4.08m14.123 3.07c1.91-.407 2.403 1.354 2.511 2.943.107 1.718-.086 3.78-1.782 3.93-1.974.171-2.597-1.289-2.682-3.071-.13-1.89.343-3.458 1.953-3.801m3.069 9.428c-1.095.365-1.31.966-3.606.794a7.15 7.15 0 0 1-3.284-1.052c-1.63-1.01-2.94-3.028-2.854-5.84.086-2.771 1.416-4.725 2.94-5.735.88-.58 2.018-.966 3.284-1.073 2.318-.194 2.747.601 3.627.794.945-1.417 3.177-.902 3.8.58l-.087 11.188c-.643 1.181-2.039 1.46-3.069.967-.386-.215-.386-.365-.751-.623M8.56 15.414l5.687-.021c.236 1.009.644 2.49 1.267 2.963.987.773 2.425.58 3.24-.215 1.03-1.009.795-1.954.323-3.35l-1.138-3.22q-1.127-3.222-2.254-6.379C14.742 2.465 14.785.77 11.372.79c-1.416 0-2.51.28-3.069 1.203-.515.901-3.799 10.651-4.571 12.756-.473 1.288-.666 2.405.214 3.307 1.052 1.052 3.391 1.331 4.1-.967.193-.58.343-1.095.515-1.675"/><path fill="#ED1C24" d="m3.319 29.113.021 1.868h85.53c4.743 0 9.486.022 14.208 0 1.888 0 3.863-.859 4.872-2.211 1.438-1.976 1.438-2.77 1.438-5.67-1.052-.172-90.552-.043-99.802-.043-3.391 0-6.267 2.685-6.267 6.056M101.468 2.507c.258.666.408.43.386 1.503a9.6 9.6 0 0 1-.236 1.76c-.193 1.032-.493 2.084-.729 3.136-.945 4.123-2.94 10.802 3.348 10.007 2.103-.257 4.55-1.481 3.198-3.8-.902.515-3.692 2.469-3.692-.495 0-1.825.666-3.607.923-5.325 1.996 0 4.593.43 4.722-2.599-1.417.28-2.661.408-4.164.344.193-1.16 1.245-3.672.601-4.553-.816-1.116-3.198-.279-4.357.022M57.62 9.27c.171-1.073.965-3.05 0-3.758-.902-.644-2.984-.193-3.864.3.537.452.43 1.182.322 2.041-.236 1.847-.815 4.424-1.287 6.185-.258.944-1.074 3.135-.601 3.994.622 1.16 2.553.837 3.798.43-.107-.967-.622-1.031.387-3.093.45-.902.88-1.76 1.33-2.641.473-.902.988-1.718 1.503-2.47.279-.408.58-.816.858-1.138.172-.215.3-.28.473-.472.257-.258.214-.344.665-.387.15 1.138-1.052 5.648-1.374 6.98-.236 1.03-.815 2.512.043 3.242.73.644 2.64.365 3.413-.086-.472-1.224-.108-1.997.43-3.092.45-.924.857-1.761 1.351-2.642.58-1.009 2.533-4.38 3.434-4.423.15.429-1.159 6.184-1.352 7.172-.258 1.396-.193 2.77.966 3.264 1.374.58 2.511-.258 3.434-.623-.15-.322.021 0-.172-.279-.15-.236-.043 0-.193-.279-.665-1.331-.043-3.672.258-5.046.279-1.31 1.116-4.639.966-5.842-.301-2.19-2.748-1.739-4.379-.6-.751.515-1.223 1.073-1.76 1.653-.687.73-1.18 1.546-1.567 1.954.108-1.138.666-2.362.172-3.5-.43-1.031-1.588-1.267-2.876-.817-1.588.559-2.468 1.676-3.456 2.814-.171.214-.257.322-.45.58zm25.175-.386c-.257.343-1.652 3.05-2.597 4.36-.429.579-3.112 4.68-2.876.987.108-1.697 1.095-7.28 3.52-6.85.773.15 1.739.987 1.953 1.503m-1.223 5.54c-.322.258-.837 1.181-1.159 1.59-.837 1.009-.665.73-1.266 1.395-.709.795-2.146 1.761-3.8 1.503-2.982-.472-2.403-5.368-1.437-7.773 1.46-3.608 4.7-7.044 8.52-5.842.237.065.838.387.945.387.343.064.622-.258 1.009-.365.923-.258 2.683.043 3.305.472L86.68 8.477c-.644 1.954-1.03 4.252-1.094 6.335-.086 2.126.15 1.975.515 3.264-.859.752-2.511 1.203-3.778.408-1.116-.709-.794-2.534-.75-4.059M93.548 9.38c.966-1.31 2.77-3.973 4.55-4.274 2.984-.494.945 4.166-.622 5.133-.3-.387-.58-.838-1.288-.602-.858.301-2.232 2.449-2.661 3.222-.472.88-.88 1.675-1.266 2.62-.923 2.19-.473 1.868-.322 2.984-1.224.43-3.241.795-3.97-.322-.516-.794.343-3.178.6-4.101.365-1.353.687-2.75.987-4.145.365-1.76.666-2.727.108-4.166 1.073-.3 2.876-.966 3.884-.172 1.073.88.022 2.62 0 3.823"/><path fill="#FFD503" d="M3.319 34.61h97.205c2.425 0 4.099.215 5.966-.944 1.009-.623 2.748-2.448 2.748-4.145-.344.236-.516.559-.838.838-3.004 2.663-5.623 2.104-9.872 2.104H3.318z"/></g></g><g fill-rule="evenodd" clip-path="url(#c)" clip-rule="evenodd"><path fill="#ED1C24" d="M12.094 44.02h10.368c.91 0 1.538.53 1.7 1.431.011.1.011.241.011.347v22.39c0 1.062-.68 1.812-1.659 1.812H1.634C.661 70 0 69.26 0 68.188c0-7.42.003-14.828 0-22.248-.032-1.15.71-1.95 1.765-1.94 3.443.031 6.88.02 10.327.02m8.534 8.5c-.575 1.228-1.456 2.069-2.544 2.721-.186.108-.268.138-.328-.122-.224-.74-.478-1.47-.727-2.178-.502-1.5-.956-3.02-1.5-4.513-.303-.748-.825-1.247-1.546-1.457-.964-.291-1.947-.291-2.94-.192-1.324.15-2.175.791-2.621 2.203-.843 2.698-1.758 5.39-2.646 8.068-.718 2.15-1.42 4.28-2.094 6.428-.189.56-.268 1.153-.144 1.733.227 1.13 1.294 2.037 2.405 2.08 1.255.068 2.144-.572 2.499-1.79.225-.733.475-1.481.635-2.221.105-.561.389-.921.811-1.192.043-.08.119-.106.212-.16 1.267-.89 2.688-1.13 4.182-1.187.177 0 .177.137.2.268.4 1.5.78 2.972 1.229 4.46.29 1.05.94 1.631 1.972 1.792 1.55.258 3.263-1.142 2.971-3.03-.063-.292-.132-.642-.211-.932-.45-1.298-.88-2.63-1.305-3.92-.042-.188-.042-.347.074-.477.468-.512.766-1.091 1.023-1.752.529-1.49.435-3.05.397-4.63M72.75 53.401c.782-.312 1.53-.55 2.35-.541.832 0 1.313.51 1.275 1.42 0 .702-.22 1.38-.375 2.03 0 .069-.052.148 0 .252.412-.634.82-1.213 1.3-1.732.605-.71 1.243-1.34 2.033-1.749.417-.221.859-.363 1.294-.351 1.065.038 1.594.671 1.613 1.809.021.642-.154 1.272-.268 1.901-.031.11-.031.222-.063.45.257-.35.443-.649.662-.962.722-1 1.538-1.976 2.574-2.629.581-.37 1.201-.608 1.89-.538.877.099 1.334.64 1.36 1.61.043.73-.132 1.42-.242 2.137-.352 1.752-.71 3.5-.986 5.24-.073.63-.073 1.223.074 1.802.074.328.2.59.446.84-.801.53-1.66.909-2.63.699-.708-.169-1.09-.718-1.16-1.558-.053-.85.12-1.69.26-2.522.34-1.688.669-3.328.987-4.99.032-.118.032-.208.032-.308-.032-.11-.106-.148-.223-.074a.9.9 0 0 0-.427.353c-1.051 1.29-1.88 2.751-2.65 4.24-.381.752-.722 1.55-1.028 2.32-.253.692-.51 1.41-.137 2.112.074.106-.031.106-.084.158-.699.269-1.422.44-2.208.28-.684-.16-1.016-.771-.888-1.6.162-1.048.45-2.05.65-3.071.333-1.397.62-2.769.806-4.188.042-.21.203-.48-.042-.604-.19-.106-.367.143-.5.291-.895 1.001-1.557 2.16-2.188 3.352a40 40 0 0 0-1.485 3.172c-.31.717-.526 1.426-.167 2.21.073.106-.008.106-.064.158-.722.269-1.474.46-2.192.269-.888-.21-1.24-.94-.975-1.977.4-1.654.816-3.252 1.168-4.882.245-1.222.445-2.45.525-3.721.021-.359.095-.817-.317-1.108"/><path fill="#005AAB" d="M44.068 62.82c0 1.39-1.063 2.368-2.2 2.269-.95-.081-1.49-.538-1.762-1.558-.106-.42-.26-.85-.385-1.29-.032-.153-.085-.259-.28-.259-1.433.02-2.85.02-4.271 0-.208 0-.25.099-.307.248-.127.44-.284.85-.37 1.27-.364 1.508-1.56 1.78-2.476 1.52-1.145-.34-1.743-1.431-1.407-2.698.364-1.313.832-2.58 1.252-3.87.817-2.524 1.675-5.012 2.457-7.543.385-1.217 1.035-1.878 2.252-1.989.667-.049 1.37-.049 2.039.15.744.14 1.235.649 1.496 1.42.556 1.69 1.111 3.38 1.655 5.041.7 2.13 1.373 4.179 2.072 6.298.129.382.227.79.235.992m-8.234-4.369h2.654c.22.039.253-.04.178-.29-.321-1.13-.657-2.283-.99-3.42-.096-.43-.23-.82-.352-1.27h-.052c-.477 1.648-.967 3.309-1.437 4.98M69.722 59.058c-.022 1.401.063 2.79-.022 4.172-.162 1.619-1.595 2.511-2.858 1.79a1.8 1.8 0 0 1-.498-.39c-.084-.16-.16-.14-.295-.05-3.244 1.92-7.413-.31-7.893-4.27-.245-2.05.125-3.932 1.384-5.48 1.04-1.322 2.41-1.84 3.957-1.97a4.5 4.5 0 0 1 2.578.648c.11.08.189.124.292-.018.608-.639 1.318-.78 2.09-.451.767.271 1.144.97 1.243 1.832.085 1.218.021 2.44.021 3.66zm-5.735 3.172c.86 0 1.3-.36 1.543-1.248.253-.763.253-1.56.209-2.371-.032-.63-.095-1.19-.387-1.77-.2-.45-.505-.742-.99-.821-.96-.199-1.784.29-2.118 1.328a5.9 5.9 0 0 0 0 3.553c.27.898.885 1.329 1.743 1.329"/><path fill="#ED1C24" d="M101.757 61.13c-.544.749-1.032 1.54-1.641 2.199-.677.81-1.414 1.53-2.427 1.752-.453.1-.87.107-1.284.02-.988-.211-1.479-.951-1.622-1.932-.302-1.649-.053-3.23.477-4.748.562-1.641 1.465-3.072 2.71-4.191 1.52-1.37 3.204-1.618 5.071-.79.085.03.215.192.239-.039.113-.763.287-1.522.215-2.312-.053-.518-.053-.518.435-.766a3.5 3.5 0 0 1 1.746-.372c.938.07 1.417.687 1.248 1.66-.208 1.13-.48 2.26-.71 3.359-.431 2.012-.844 3.982-1.1 6.012-.133 1.106-.133 2.248.339 3.278.063.111.011.148-.074.21-.805.68-1.723.92-2.699.52-.665-.298-.968-.92-1.025-1.669-.063-.709.053-1.45.095-2.19zm-3.63-.121c-.01.282 0 .579.043.861.084.558.36.661.759.311.408-.31.68-.741.965-1.172.921-1.26 1.598-2.668 2.365-3.978.519-.862.48-.942-.321-1.5-.01-.03-.042-.053-.052-.079-.893-.612-1.641-.47-2.277.426-.12.142-.2.29-.272.462-.657 1.47-1.107 3.008-1.21 4.669"/><path fill="#005AAB" d="M55.664 59.82v3.051c0 .21 0 .409-.022.607-.199 1.103-.941 1.702-1.977 1.61-1.126-.08-1.797-.847-1.818-2.037-.042-.963 0-1.962-.031-2.95 0-1.2 0-2.42.031-3.61 0-.23-.031-.341-.286-.379a1.51 1.51 0 0 1-1.214-.733c-.475-.87 0-1.87.954-2.069.513-.1.547-.1.513-.672 0-.47 0-.939.095-1.367.212-1.072.824-1.79 1.758-2.171 1.175-.452 2.325-.431 3.522-.03.78.228 1.21.851 1.16 1.622-.031.709-.427 1.118-1.1 1.1-.305 0-.588-.043-.873 0-.457.037-.672.29-.703.797-.021.66-.021.67.586.66.258 0 .541.01.797.061.62.13 1.044.61 1.075 1.32.042.68-.276 1.15-.9 1.39-.43.149-.854.13-1.296.13-.22-.038-.262.042-.262.278v3.393M45.356 56.97c0-2-.01-3.98 0-5.981 0-1.068.624-1.919 1.456-2.137 1.217-.344 2.234.446 2.445 1.786.021.241.053.474.053.733V62.51c0 .312-.032.63-.117.941-.27 1.058-.971 1.68-1.947 1.65-.93-.03-1.641-.7-1.838-1.771-.063-.297-.063-.649-.063-.938v-5.42z"/><path fill="#ED1C24" d="M111.195 64.34c-.854.65-1.75.94-2.74.76-.749-.11-1.195-.71-1.233-1.58-.095-.9.14-1.779.322-2.642.329-1.667.744-3.298 1.016-4.977.113-.61.174-1.262.042-1.893a.54.54 0 0 0-.052-.26c-.159-.419-.159-.419.275-.538.745-.22 1.501-.43 2.283-.35.937.179 1.304.772 1.063 1.729-.315 1.232-.65 2.461-.908 3.71-.286 1.263-.54 2.5-.673 3.801-.008.352-.008.691.021 1.011.084.478.205.897.582 1.23M90.738 54.87c0-.59-.052-.98-.257-1.37-.042-.099-.021-.14.084-.19.908-.302 1.83-.569 2.794-.37.73.141 1.057.71.858 1.538-.22 1.085-.502 2.11-.764 3.182-.321 1.398-.62 2.86-.794 4.291-.052.58-.031 1.16.14 1.73.053.11.085.209.144.327.095.123.253.263.222.32-.063.212-.253.272-.381.334-.635.357-1.267.55-1.977.489-1.032-.112-1.55-.71-1.568-1.852-.004-.847.204-1.698.37-2.558.318-1.652.768-3.282 1.04-4.96.042-.342.063-.73.094-.91M93.656 48.852h.201c.986.068 1.372.7 1.115 1.719-.13.499-.39.8-.85.95-.557.159-1.09.308-1.68.239-.793-.148-1.02-.45-.831-1.301.105-.348.186-.699 0-1.068-.084-.13.105-.111.16-.13a4.6 4.6 0 0 1 1.884-.409M109.521 49.298c.854-.316 1.715-.586 2.6-.388.708.12 1.002.679.832 1.439-.105.603-.374 1.041-1.013 1.19-.552.153-1.096.29-1.666.21-.67-.168-.893-.478-.704-1.186.011-.153.043-.314.085-.462.063-.261.031-.52-.136-.803"/><path fill="#fff" d="M20.628 52.52c.042 1.58.132 3.14-.398 4.63-.256.66-.554 1.24-1.022 1.752-.111.13-.111.29-.074.477.424 1.29.855 2.622 1.304 3.92.074.29.145.64.212.932.291 1.888-1.421 3.288-2.971 3.03-1.032-.161-1.682-.741-1.973-1.791-.449-1.489-.827-2.961-1.228-4.461-.021-.131-.021-.268-.2-.268-1.494.057-2.915.297-4.182 1.188-.095.053-.173.08-.212.16-.423.27-.71.63-.812 1.19-.159.74-.409 1.49-.634 2.222-.356 1.218-1.244 1.858-2.5 1.79-1.11-.043-2.177-.95-2.405-2.08-.123-.58-.042-1.172.145-1.733a366 366 0 0 1 2.094-6.428c.888-2.678 1.803-5.37 2.646-8.068.446-1.412 1.296-2.053 2.62-2.203.994-.099 1.977-.099 2.94.192.722.21 1.244.709 1.546 1.458.544 1.492.999 3.011 1.5 4.512.25.709.504 1.438.727 2.178.064.26.143.23.328.123 1.089-.653 1.97-1.493 2.545-2.722zm-10.32 6a7.9 7.9 0 0 1 2.877-1.728c.223-.05.095-.204.063-.302-.355-1.241-.687-2.47-1.058-3.7-.01-.11-.01-.227-.143-.32-.567 2-1.131 3.97-1.74 6.05"/><path fill="#ED1C24" d="M10.308 58.52c.609-2.08 1.173-4.05 1.74-6.05.129.093.129.21.143.32.37 1.23.703 2.459 1.058 3.7.032.098.16.252-.063.302a7.9 7.9 0 0 0-2.877 1.727"/></g><defs><clipPath id="a"><path fill="#fff" d="M3 0h107v35H3z"/></clipPath><clipPath id="c"><path fill="#fff" d="M0 44h113v26H0z"/></clipPath></defs></svg>