<svg width="48" height="11" viewBox="0 0 48 11" fill="none" xmlns="http://www.w3.org/2000/svg">
<g clip-path="url(#clip0_879_493)">
<path d="M35.7579 8.2106C36.3737 8.2106 36.8947 7.99481 37.2737 7.57902V8.09481H38.2632V5.89481V5.87902V5.84744C38.2632 5.83692 38.2632 5.82113 38.2632 5.8106V5.77902C38.2263 4.43692 37.1947 3.42639 35.8526 3.42639H35.8368H35.7579C34.4842 3.42639 33.4526 4.50008 33.4526 5.82113C33.4526 7.13692 34.4895 8.2106 35.7579 8.2106ZM34.4421 5.81587C34.4421 5.00008 35.0474 4.38429 35.8526 4.38429C36.6632 4.38429 37.2737 5.00008 37.2737 5.81587C37.2737 6.63165 36.6632 7.24744 35.8526 7.24744C35.0526 7.24744 34.4421 6.63165 34.4421 5.81587Z" fill="black"/>
<path d="M28.8685 7.57901C29.2527 7.98954 29.7738 8.21059 30.3843 8.21059C31.658 8.21059 32.6948 7.1369 32.6948 5.81585C32.6948 4.4948 31.658 3.41585 30.3843 3.41585C29.7685 3.41585 29.2474 3.63164 28.8685 4.04743V1.7948H27.879V8.0948H28.8685V7.57901ZM28.8685 5.81585C28.8685 5.00006 29.479 4.38427 30.2896 4.38427C31.0948 4.38427 31.7053 5.00006 31.7053 5.81585C31.7053 6.63164 31.0948 7.24743 30.2896 7.24743C29.479 7.24217 28.8685 6.63164 28.8685 5.81585Z" fill="black"/>
<path d="M44.8842 6.22112L46.6737 8.08427L46.6895 8.10006H47.9579L45.7053 5.74743L47.8948 3.52638H46.5895L44.8842 5.26848V1.7948H43.8948V8.10006H44.8842V6.22112Z" fill="black"/>
<path d="M24.779 8.22639C26.0843 8.22639 27.1159 7.24744 27.1843 5.95271C27.1843 5.9106 27.1895 5.8685 27.1895 5.82639C27.1895 5.78429 27.1895 5.74218 27.1843 5.70007C27.1211 4.40534 26.0895 3.42639 24.779 3.42639C23.4369 3.42639 22.3843 4.47902 22.3843 5.82639C22.3843 7.17376 23.4369 8.22639 24.779 8.22639ZM23.3738 5.83165C23.3738 5.73165 23.3843 5.63165 23.4001 5.53692C23.5316 4.86323 24.0843 4.4106 24.779 4.4106C25.5843 4.4106 26.1948 5.02113 26.1948 5.83165C26.1948 6.02639 26.158 6.21586 26.0895 6.38955C26.0843 6.39481 26.0843 6.40534 26.079 6.4106L26.0738 6.42113C26.0422 6.50008 26.0001 6.57376 25.958 6.63692C25.7001 7.02639 25.2685 7.25271 24.779 7.25271C24.0843 7.25271 23.5316 6.80008 23.4001 6.12639C23.3843 6.02639 23.3738 5.93165 23.3738 5.83165Z" fill="black"/>
<path d="M14.4263 3.41589C13.2632 3.41589 12.3527 4.28958 12.3527 5.40537V8.09484H13.3421V5.40537C13.3421 4.82642 13.8106 4.38958 14.4263 4.38958C15.0474 4.38958 15.5106 4.82642 15.5106 5.40537V8.09484H16.5V5.40537C16.5 4.28958 15.5895 3.41589 14.4263 3.41589Z" fill="black"/>
<path d="M39.9737 5.40537C39.9737 4.82642 40.4421 4.38958 41.0579 4.38958C41.679 4.38958 42.1421 4.82642 42.1421 5.40537V8.09484H43.1316V5.40537C43.1316 4.28958 42.2211 3.41589 41.0579 3.41589C39.8948 3.41589 38.9843 4.28958 38.9843 5.40537V8.09484H39.9737V5.40537Z" fill="black"/>
<path d="M20.8 6.66322L21.5842 7.36322C21.0737 8.04743 20.1842 8.22638 19.6579 8.22638C18.3368 8.22638 17.2789 7.15796 17.2789 5.82111C17.2789 4.50006 18.3368 3.43164 19.6579 3.43164C20.8368 3.43164 21.621 4.2948 21.721 5.04743L18.7737 6.93164C19.0158 7.12638 19.321 7.25269 19.6474 7.26848C20.1158 7.30006 20.6105 7.06322 20.8 6.66322ZM18.2316 5.80006C18.2316 5.94743 18.2526 6.10006 18.3 6.23164L20.5947 4.76848C20.3842 4.51059 20.0526 4.36848 19.6684 4.36848C18.8842 4.36848 18.2316 4.97901 18.2316 5.80006Z" fill="black"/>
<path d="M5.13685 0.0421143C2.32632 0.0421143 0.0421143 2.32106 0.0421143 5.13685C0.0421143 7.94738 2.32106 10.2316 5.13685 10.2316C7.94738 10.2316 10.2316 7.95264 10.2316 5.13685C10.2263 2.32632 7.94738 0.0421143 5.13685 0.0421143Z" fill="#FFD200"/>
<mask id="mask0_879_493" style="mask-type:luminance" maskUnits="userSpaceOnUse" x="0" y="0" width="11" height="11">
<path d="M5.13685 0.0421143C2.32632 0.0421143 0.0421143 2.32106 0.0421143 5.13685C0.0421143 7.94738 2.32106 10.2316 5.13685 10.2316C7.94738 10.2316 10.2316 7.95264 10.2316 5.13685C10.2263 2.32632 7.94738 0.0421143 5.13685 0.0421143Z" fill="white"/>
</mask>
<g mask="url(#mask0_879_493)">
<path d="M1.51587 10.2947V9.71576C1.51587 9.42103 1.6685 9.15261 1.91587 8.99997L1.90534 8.0105V2.99471C1.90534 2.85787 1.99482 2.77892 2.07903 2.75261C2.10008 2.74734 2.13166 2.73682 2.1685 2.73682C2.22113 2.73682 2.30008 2.75261 2.36324 2.83155L3.0685 3.68418H7.23166L7.93692 2.83155C8.00008 2.75261 8.07903 2.73682 8.13166 2.73682C8.17376 2.73682 8.20534 2.74734 8.22113 2.75261C8.30534 2.78418 8.39482 2.86313 8.39482 2.99471V4.11576L8.38429 4.39471C8.61061 4.55261 8.74745 4.80524 8.74745 5.08419V10.2947H1.51587Z" fill="white"/>
<path d="M1.59998 9.99474V9.72105C1.59998 9.43158 1.76313 9.17895 1.99998 9.05263L1.98945 8.01579V7.43684V3C1.98945 2.88421 2.07892 2.84211 2.10524 2.83158C2.13155 2.82105 2.22629 2.79474 2.30524 2.88421L3.03682 3.76316H7.27892L8.0105 2.88421C8.08419 2.79474 8.17892 2.82105 8.2105 2.83158C8.23682 2.84211 8.32629 2.88421 8.32629 3V4.12105L8.3105 4.4421C8.52629 4.57368 8.67366 4.81579 8.67366 5.08421V9.99474H1.59998Z" fill="white"/>
<path d="M5.23157 7.43152C5.35262 7.6052 5.43683 7.79994 5.47367 8.01047H6.86841V7.43152H5.23157Z" fill="#FFD200"/>
<path d="M1.99475 7.43152V8.01047H2.46317C2.50528 7.79994 2.58949 7.59994 2.70528 7.43152H1.99475Z" fill="#FFD200"/>
<path d="M4.48422 5.25783C4.54211 5.25783 4.60001 5.22099 4.62106 5.16309C4.64737 5.08941 4.61053 4.99993 4.53685 4.97362C4.02632 4.78414 3.46843 4.7052 2.92106 4.75256C2.84211 4.75783 2.77895 4.83151 2.78948 4.91046C2.79474 4.98941 2.86843 5.05256 2.94737 5.04204C3.45264 4.99993 3.95264 5.06835 4.43159 5.2473C4.44737 5.25783 4.46843 5.25783 4.48422 5.25783Z" fill="black"/>
<path d="M5.98425 5.62632C5.93688 5.63158 5.90531 5.67368 5.91583 5.72105C5.91583 5.72105 5.94215 5.9 5.81057 6.04737C5.70004 6.17368 5.51057 6.24737 5.24741 6.25789V5.72632C5.41057 5.68947 5.54741 5.56316 5.5632 5.54737C5.59478 5.51579 5.59478 5.46316 5.5632 5.43158C5.53162 5.4 5.47899 5.39474 5.44741 5.43158C5.40531 5.46842 5.27373 5.57368 5.1632 5.57368C5.05267 5.57368 4.92109 5.47368 4.87899 5.43158C4.84741 5.4 4.79478 5.4 4.7632 5.43158C4.73162 5.46316 4.73162 5.51579 4.7632 5.54737C4.7632 5.54737 4.81057 5.59474 4.88425 5.63684C4.95267 5.67895 5.0211 5.71053 5.08425 5.72105V6.26316C4.81583 6.25263 4.62636 6.18421 4.51057 6.05263C4.38425 5.90526 4.40531 5.73158 4.40531 5.72632C4.41057 5.67895 4.37899 5.63684 4.33688 5.63158C4.28952 5.62632 4.24741 5.65789 4.24215 5.7C4.24215 5.71053 4.20531 5.95263 4.38425 6.15789C4.53688 6.33684 4.80004 6.43158 5.1632 6.43158H5.16846C5.16846 6.43158 5.16846 6.43158 5.17373 6.43158C5.53162 6.43158 5.78952 6.33684 5.94215 6.15789C6.12109 5.95263 6.08425 5.71053 6.08425 5.7C6.06846 5.65263 6.02636 5.62105 5.98425 5.62632Z" fill="black"/>
<path d="M2.25798 5.39468L3.04219 5.44731C3.04219 5.44731 3.04219 5.44731 3.04745 5.44731C3.07377 5.44731 3.09482 5.42626 3.10008 5.39994C3.10008 5.37363 3.07903 5.34731 3.05272 5.34731L2.2685 5.29468C2.24219 5.29468 2.21587 5.31573 2.21587 5.34205C2.20535 5.36836 2.2264 5.38941 2.25798 5.39468Z" fill="black"/>
<path d="M3.19479 5.73676C3.18952 5.71045 3.16321 5.6894 3.13689 5.69466L2.18952 5.82098C2.16321 5.82624 2.14216 5.85255 2.14742 5.87887C2.15268 5.90519 2.17373 5.92624 2.20005 5.92624H2.20531L3.15268 5.79992C3.179 5.7894 3.19479 5.76308 3.19479 5.73676Z" fill="black"/>
<path d="M3.15791 6.0053L2.34212 6.33162C2.3158 6.34214 2.30527 6.37372 2.3158 6.40004C2.32633 6.42109 2.34212 6.43162 2.36317 6.43162C2.36843 6.43162 2.3737 6.43162 2.38422 6.42636L3.20001 6.10004C3.22633 6.08951 3.23685 6.05794 3.22633 6.03162C3.2158 6.01057 3.18422 5.99478 3.15791 6.0053Z" fill="black"/>
<path d="M3.96842 9.63681C4.67895 9.63681 5.31579 9.02102 5.29474 8.28944C5.27368 7.53681 4.68421 6.96838 3.96842 6.96838C3.25789 6.96838 2.63684 7.56838 2.63684 8.27891C2.63684 8.99996 3.25789 9.63681 3.96842 9.63681Z" fill="#FFD200"/>
<path d="M3.08945 9.56312C2.88419 9.42102 2.72103 9.23154 2.60524 9.01049C2.52629 8.98417 2.44208 8.96838 2.35261 8.96838C1.93682 8.96838 1.59998 9.30523 1.59998 9.72102V9.9947H3.10524V9.72102C3.10524 9.66312 3.09998 9.61049 3.08945 9.56312Z" fill="white"/>
<path d="M8.31058 4.43682V4.89998C8.31058 4.95787 8.26321 5.00524 8.20532 5.00524C8.14742 5.00524 8.10005 4.95787 8.10005 4.89998V4.34735C8.04216 4.33156 7.979 4.32629 7.91584 4.32629C7.85268 4.32629 7.78953 4.33682 7.73163 4.34735V4.89998C7.73163 4.95787 7.68426 5.00524 7.62637 5.00524C7.56847 5.00524 7.52111 4.95787 7.52111 4.89998V4.43682C7.30532 4.5684 7.15795 4.8105 7.15795 5.07892V8.49998H6.86321V8.0105H5.46847C5.48426 8.10524 5.49479 8.19998 5.49479 8.29998C5.49479 9.14735 4.80532 9.83682 3.95795 9.83682C3.75795 9.83682 3.56321 9.79998 3.38953 9.72629V10.2895H8.66321V5.07366C8.67374 4.8105 8.52637 4.5684 8.31058 4.43682Z" fill="white"/>
<path d="M8.22632 5.39466C8.36316 5.69466 8.07369 5.98413 7.77369 5.84729C7.71053 5.82098 7.6579 5.76834 7.63158 5.70519C7.49474 5.40519 7.78421 5.11571 8.08421 5.25255C8.14737 5.27887 8.2 5.3315 8.22632 5.39466Z" fill="#FFD200"/>
<path d="M2.57376 3.76316C2.62113 3.76316 2.64744 3.7 2.61586 3.6579L2.42639 3.39474C2.3527 3.28948 2.20007 3.35264 2.20007 3.48948V3.7C2.20007 3.73685 2.22639 3.76316 2.25797 3.76316H2.57376Z" fill="#FFD200"/>
<path d="M7.7053 3.76316C7.65794 3.76316 7.63162 3.7 7.6632 3.6579L7.85267 3.39474C7.92636 3.28948 8.07899 3.35264 8.07899 3.48948V3.7C8.07899 3.73685 8.05267 3.76316 8.02109 3.76316H7.7053Z" fill="#FFD200"/>
<path d="M8.96846 5.43156V5.08419C8.96846 4.77367 8.83161 4.49472 8.62109 4.30524V3.34735V2.99998C8.62109 2.79998 8.50003 2.6263 8.31056 2.55788C8.12109 2.48946 7.91582 2.54735 7.78425 2.69998L7.14214 3.47367H3.17898L2.53688 2.69998C2.41056 2.54735 2.20003 2.48946 2.01056 2.55788C1.82109 2.6263 1.70003 2.79998 1.70003 2.99998V3.34735V8.90525C1.46319 9.09472 1.3053 9.38946 1.3053 9.72104V9.73156V10.3H1.60003V9.72104C1.60003 9.30525 1.93688 8.9684 2.35267 8.9684C2.44214 8.9684 2.52635 8.98419 2.6053 9.01051C2.72109 9.23156 2.88424 9.42103 3.08951 9.56314C3.10003 9.61577 3.1053 9.66314 3.1053 9.71577V10.2947H3.40003V9.73156C3.57898 9.79998 3.76846 9.84209 3.96846 9.84209C4.81582 9.84209 5.5053 9.15261 5.5053 8.30524C5.5053 8.20524 5.49477 8.11051 5.47898 8.01577C5.43688 7.80524 5.35267 7.60524 5.23688 7.43682C4.95793 7.03682 4.49477 6.77367 3.97372 6.77367C3.45267 6.77367 2.98951 7.03682 2.71056 7.43682C2.58951 7.61051 2.5053 7.80524 2.46846 8.01577C2.45267 8.11051 2.44214 8.20524 2.44214 8.30524C2.44214 8.43156 2.45793 8.55788 2.48951 8.67893C2.4474 8.67367 2.4053 8.67367 2.36319 8.67367C2.23688 8.67367 2.11582 8.69472 2.0053 8.73682V8.01577V7.43682V2.99998C2.0053 2.88419 2.09477 2.84209 2.12109 2.83156C2.1474 2.82103 2.24214 2.79472 2.32109 2.88419L3.05267 3.76314H7.29477L8.02635 2.88419C8.10003 2.79472 8.19477 2.82103 8.22635 2.83156C8.25267 2.84209 8.34214 2.88419 8.34214 2.99998V4.12103C8.21582 4.0684 8.07898 4.04209 7.93688 4.04209C7.47898 4.04209 7.08425 4.33682 6.9474 4.75261C6.56319 4.77367 6.18425 4.84735 5.82635 4.98419C5.75267 5.01051 5.71056 5.09998 5.74214 5.17367C5.76319 5.23156 5.82109 5.2684 5.87898 5.2684C5.89477 5.2684 5.91582 5.26314 5.93161 5.25788C6.24214 5.14209 6.56846 5.0684 6.89477 5.04735C6.89477 5.06314 6.89477 5.07367 6.89477 5.08946V7.44209V8.02103V8.51051H7.18951V5.08946C7.18951 4.81577 7.33688 4.57893 7.55267 4.44735V4.91051C7.55267 4.9684 7.60003 5.01577 7.65793 5.01577C7.71582 5.01577 7.76319 4.9684 7.76319 4.91051V4.35788C7.82109 4.34209 7.88424 4.33682 7.9474 4.33682C8.01056 4.33682 8.07372 4.34735 8.13161 4.35788V4.91051C8.13161 4.9684 8.17898 5.01577 8.23688 5.01577C8.29477 5.01577 8.34214 4.9684 8.34214 4.91051V4.44735C8.55793 4.57893 8.7053 4.82103 8.7053 5.08946V10.3052H9.00003V9.73682V5.43156H8.96846ZM3.96846 7.01051C4.67898 7.01051 5.26319 7.58945 5.26319 8.30524C5.26319 9.02103 4.68424 9.59998 3.96846 9.59998C3.25793 9.59998 2.67372 9.02103 2.67372 8.30524C2.67372 7.58945 3.25793 7.01051 3.96846 7.01051Z" fill="black"/>
<path d="M4.2106 8.43183L4.30007 8.51078C4.23165 8.60025 4.11586 8.62656 4.03692 8.62656C3.8527 8.62656 3.70007 8.4792 3.70007 8.28972C3.70007 8.10551 3.84744 7.95288 4.03692 7.95288C4.19481 7.95288 4.30534 8.06341 4.32113 8.16867L3.87902 8.44762C3.92113 8.48972 3.97376 8.51077 4.03165 8.51604C4.1106 8.5213 4.17902 8.48972 4.2106 8.43183ZM3.81586 8.28972C3.81586 8.31604 3.82113 8.34762 3.83165 8.37393L4.20007 8.14235C4.16849 8.09499 4.1106 8.06341 4.04218 8.06341C3.92113 8.06341 3.81586 8.16341 3.81586 8.28972Z" fill="black"/>
<path d="M4.40527 8.28972C4.40527 8.10551 4.55264 7.95288 4.74212 7.95288C4.93159 7.95288 5.07896 8.10025 5.07896 8.28972C5.07896 8.4792 4.93159 8.62656 4.74212 8.62656C4.55791 8.62656 4.40527 8.4792 4.40527 8.28972ZM4.96317 8.28972C4.96317 8.16867 4.86317 8.06867 4.73685 8.06867C4.6158 8.06867 4.5158 8.16867 4.5158 8.28972C4.5158 8.41078 4.6158 8.51604 4.73685 8.51604C4.86317 8.51604 4.96317 8.41604 4.96317 8.28972Z" fill="black"/>
<path d="M3.28949 7.95288C3.12633 7.95288 2.99475 8.0792 2.99475 8.23709V8.6213H3.1158V8.24762C3.1158 8.15288 3.19475 8.07393 3.28949 8.07393C3.38422 8.07393 3.46317 8.15288 3.46317 8.24762V8.6213H3.58423V8.23709C3.58423 8.0792 3.45265 7.95288 3.28949 7.95288Z" fill="black"/>
</g>
</g>
<defs>
<clipPath id="clip0_879_493">
<rect width="48" height="10.2632" fill="white"/>
</clipPath>
</defs>
</svg>
