<svg width="38" height="13" viewBox="0 0 38 13" fill="none" xmlns="http://www.w3.org/2000/svg">
<g clip-path="url(#clip0_10036_48644)">
<path d="M15.4988 4.34202C15.4481 4.253 15.3819 4.18132 15.3011 4.12836C15.2212 4.0754 15.1335 4.03477 15.0386 4.00829C14.9911 3.99459 14.9441 3.98409 14.8966 3.97588C14.9486 3.95624 14.997 3.93433 15.0422 3.91013C15.1253 3.8663 15.2007 3.80969 15.265 3.74167C15.3299 3.67364 15.3796 3.5974 15.4152 3.51157C15.4499 3.42711 15.4673 3.3326 15.4673 3.23216C15.4673 3.08059 15.4294 2.95733 15.3541 2.86465C15.2792 2.77334 15.1682 2.70623 15.0212 2.66833C14.8802 2.62998 14.6975 2.61035 14.4816 2.61035H13.6128V5.5893H14.2529C14.388 5.5893 14.5049 5.58702 14.603 5.58108C14.7003 5.57515 14.8016 5.55917 14.9034 5.53269C15.0062 5.50484 15.0975 5.46558 15.176 5.41262C15.4408 5.22909 15.5746 4.97708 15.5746 4.66526C15.575 4.53971 15.5485 4.43105 15.4988 4.34202ZM14.0474 2.82767H14.3341C14.4903 2.82767 14.6208 2.84273 14.7236 2.87286C14.8231 2.903 14.9002 2.95504 14.9523 3.02672C15.0053 3.09931 15.0331 3.19884 15.0331 3.32256C15.0331 3.4335 15.0053 3.53303 14.9523 3.61703C14.898 3.70149 14.8208 3.7686 14.7222 3.81471C14.6437 3.85033 14.5638 3.87361 14.4843 3.88502C14.4035 3.89644 14.3063 3.90237 14.1944 3.90237H14.0479V2.82767H14.0474ZM15.0322 5.06428C14.9742 5.16015 14.8925 5.23639 14.7884 5.29072C14.6843 5.34505 14.5619 5.3729 14.4254 5.3729H14.0474V4.11923H14.2579C14.535 4.11923 14.7514 4.16671 14.9002 4.2603C15.0468 4.35252 15.1185 4.50866 15.1185 4.73739C15.1189 4.85746 15.0897 4.96749 15.0322 5.06428Z" fill="black"/>
<path d="M17.8595 5.38213C17.7577 5.40541 17.7034 5.40541 17.6814 5.3835C17.6687 5.37071 17.6618 5.35473 17.6595 5.33373C17.6559 5.30817 17.6536 5.26799 17.6536 5.21366V4.21885C17.6536 3.97141 17.5911 3.78331 17.4687 3.6573C17.3463 3.53267 17.1646 3.46875 16.9304 3.46875C16.6949 3.46875 16.4565 3.54956 16.2223 3.71026L16.2095 3.71939V4.00154H16.3077L16.3146 3.98191C16.326 3.94721 16.3515 3.90795 16.3922 3.8664C16.4328 3.82348 16.488 3.7865 16.5583 3.75409C16.6287 3.72305 16.7099 3.70661 16.7976 3.70661C16.9491 3.70661 17.0656 3.74816 17.1477 3.82896C17.2286 3.90977 17.2701 4.02893 17.2701 4.18005C17.2701 4.24122 17.2587 4.28642 17.2354 4.31518C17.2121 4.34303 17.1742 4.36586 17.1236 4.38001C17.0683 4.39736 16.972 4.41562 16.8391 4.43891C16.6634 4.46676 16.52 4.4978 16.415 4.53022C16.3054 4.56491 16.2118 4.62609 16.1365 4.71375C16.0603 4.80277 16.021 4.92741 16.021 5.08446C16.021 5.24608 16.0813 5.3803 16.2 5.48302C16.3168 5.58483 16.4588 5.63688 16.6218 5.63688C16.8715 5.63688 17.0911 5.54329 17.276 5.35976C17.2934 5.43006 17.3267 5.48439 17.3742 5.51909C17.4331 5.56292 17.5084 5.5862 17.6006 5.58848C17.6467 5.58848 17.6942 5.58483 17.7417 5.5757C17.7823 5.56885 17.8271 5.55242 17.8782 5.52959L17.8956 5.52274V5.37254L17.8595 5.38213ZM17.2528 5.1292C17.2514 5.13148 17.2482 5.13833 17.2368 5.15248C17.224 5.16983 17.2089 5.18581 17.1929 5.19997C17.177 5.21594 17.1605 5.23101 17.1468 5.24516C17.1076 5.28443 17.0546 5.32141 16.9907 5.35245C16.9281 5.38487 16.8715 5.39993 16.8231 5.39993C16.6971 5.39993 16.599 5.36889 16.5319 5.30634C16.4648 5.24516 16.4314 5.1502 16.4314 5.0242C16.4314 4.93974 16.4524 4.86806 16.4949 4.81373C16.5378 4.75849 16.5921 4.71557 16.6565 4.68681C16.7245 4.65668 16.7985 4.63385 16.8747 4.6165C16.9555 4.59915 17.0432 4.5818 17.1372 4.56583L17.2528 4.54163V5.1292Z" fill="black"/>
<path d="M19.3618 3.46875C19.0833 3.46875 18.8618 3.58471 18.7016 3.81435V3.49158L18.6706 3.49386C18.6308 3.4966 18.597 3.49934 18.5683 3.50208C18.5112 3.50756 18.4847 3.5071 18.4304 3.50208C18.4007 3.49934 18.3679 3.4966 18.3313 3.49386L18.3003 3.49158V5.60538L18.3323 5.60172C18.3569 5.59898 18.3816 5.5967 18.4048 5.59442L18.4519 5.59031C18.4592 5.58985 18.4756 5.5894 18.5007 5.5894C18.5231 5.5894 18.54 5.58985 18.5518 5.59122C18.5646 5.59259 18.5806 5.59396 18.6002 5.59533C18.619 5.5967 18.6418 5.59853 18.6696 5.60172L18.7016 5.60492V4.57815C18.7016 4.29692 18.7413 4.08463 18.8203 3.94721C18.897 3.81344 19.0321 3.74815 19.2339 3.74815C19.3517 3.74815 19.4444 3.77646 19.5092 3.83216C19.575 3.88877 19.6197 3.96638 19.6434 4.06317C19.6681 4.16407 19.6804 4.28779 19.6804 4.43114V5.60492L19.7124 5.60127C19.737 5.59853 19.7585 5.5967 19.7772 5.59533C19.7964 5.59396 19.8124 5.59259 19.8256 5.59122C19.8484 5.58894 19.9096 5.58848 19.9334 5.59122C19.9452 5.59259 19.9612 5.59396 19.9808 5.59533C19.9996 5.5967 20.0224 5.59853 20.0502 5.60172L20.0822 5.60492V4.33344C20.0822 4.0408 20.026 3.82166 19.9155 3.68196C19.8032 3.54043 19.617 3.46875 19.3618 3.46875Z" fill="black"/>
<path d="M22.4931 5.54161V5.60416L22.4621 5.60188C22.4251 5.59959 22.3963 5.59731 22.3753 5.59594C22.3534 5.59457 22.3347 5.59229 22.3187 5.59138C22.3037 5.59001 22.2831 5.58909 22.2539 5.58909C22.2215 5.58909 22.2009 5.59046 22.1913 5.59046L22.1325 5.59503C22.1037 5.59731 22.0736 5.59959 22.0434 5.60188L22.0274 5.60325L22.0183 5.59046C21.9549 5.50737 21.8485 5.37771 21.7042 5.20925C21.5577 5.03942 21.3901 4.84538 21.1979 4.6267C21.1495 4.57374 21.1276 4.57009 21.1217 4.57009C21.1148 4.57009 21.0961 4.59337 21.0961 4.69838V5.60553L21.0637 5.60188C21.0358 5.59959 21.013 5.59731 20.9943 5.59594C20.9747 5.59457 20.9596 5.59229 20.9459 5.59138C20.9345 5.59001 20.9171 5.58909 20.8952 5.58909C20.8696 5.58909 20.8537 5.59046 20.8468 5.59046L20.7993 5.59503C20.7761 5.59731 20.7519 5.59959 20.7268 5.60188L20.6943 5.60553V2.81787H21.0966V4.27379C21.0966 4.34319 21.0979 4.36875 21.1002 4.37788C21.1002 4.38154 21.1016 4.38382 21.1016 4.38473C21.1545 4.37788 21.2554 4.32675 21.4412 4.14094L21.707 3.87066L22.0503 3.49264L22.0653 3.49401C22.1009 3.4963 22.1347 3.49995 22.1635 3.50223C22.1923 3.50451 22.2155 3.5068 22.2338 3.5068C22.2489 3.5068 22.2694 3.50451 22.2973 3.50223C22.326 3.49995 22.3598 3.4963 22.4 3.49401L22.4301 3.49173V3.5666L22.421 3.57482C22.3758 3.61637 22.3365 3.65106 22.3018 3.67891C22.2671 3.70676 22.19 3.77114 22.0694 3.87431C21.9503 3.97384 21.8325 4.07748 21.7161 4.18157C21.6166 4.27151 21.544 4.33862 21.4965 4.38245C21.5403 4.43221 21.5969 4.49795 21.6663 4.57876C21.7448 4.67235 21.8375 4.77964 21.9425 4.90245C22.0475 5.02618 22.1448 5.13712 22.2302 5.23756C22.3169 5.338 22.4023 5.43615 22.4854 5.5334L22.4931 5.54161Z" fill="black"/>
<path d="M15.3888 8.04452C15.2487 7.92125 15.0382 7.80392 14.7633 7.69481C14.494 7.58798 14.2931 7.48571 14.1666 7.38938C14.0457 7.29761 13.9845 7.15015 13.9845 6.9511C13.9845 6.84016 14.0123 6.73972 14.0667 6.65343C14.1214 6.56714 14.1968 6.49912 14.2904 6.45118C14.3849 6.40324 14.4903 6.37905 14.604 6.37905C14.7465 6.37905 14.8729 6.4174 14.9797 6.49318C15.0866 6.56897 15.166 6.67489 15.2158 6.80774L15.2226 6.82646H15.3144L15.3208 6.80592C15.3856 6.58677 15.4317 6.4457 15.4578 6.38726L15.466 6.36855L15.4509 6.35439C15.3596 6.26993 15.2436 6.20556 15.1067 6.1631C14.9711 6.12156 14.8332 6.1001 14.6971 6.1001C14.3616 6.1001 14.0799 6.18867 13.8594 6.36261C13.6371 6.53884 13.5238 6.79222 13.5238 7.11682C13.5238 7.3839 13.5973 7.58661 13.7421 7.719C13.8831 7.84821 14.0913 7.96736 14.3607 8.07283C14.6246 8.17646 14.8232 8.27736 14.951 8.37323C15.0733 8.465 15.1354 8.61429 15.1354 8.81654C15.1354 8.94528 15.1053 9.06672 15.0459 9.17766C14.9866 9.28815 14.904 9.37717 14.7999 9.442C14.6958 9.50683 14.5775 9.5397 14.4479 9.5397C14.2689 9.5397 14.1151 9.49679 13.9918 9.41141C13.8667 9.32558 13.7484 9.19318 13.6402 9.01787L13.6316 9.00418H13.5371L13.5339 9.02929C13.5092 9.21966 13.4764 9.37124 13.4371 9.48081L13.4312 9.49724L13.4426 9.51003C13.5279 9.60407 13.6594 9.67986 13.8338 9.73556C14.0064 9.7908 14.1644 9.81865 14.3041 9.81865C14.4839 9.81865 14.6538 9.79126 14.809 9.73784C14.9642 9.68397 15.1039 9.60362 15.2245 9.49861C15.3454 9.39315 15.4399 9.26441 15.5061 9.11649C15.5723 8.96856 15.6052 8.79964 15.6052 8.61566C15.6061 8.36319 15.5331 8.17144 15.3888 8.04452Z" fill="black"/>
<path d="M18.2175 9.50205C18.0929 9.53218 18.0267 9.53081 17.9993 9.50342C17.9833 9.48744 17.9737 9.46644 17.9705 9.44087C17.9669 9.40846 17.9646 9.36006 17.9646 9.29432V8.10091C17.9646 7.80507 17.8906 7.58091 17.7441 7.43208C17.5975 7.28187 17.3811 7.20654 17.1003 7.20654C16.8196 7.20654 16.5351 7.30379 16.2544 7.49554L16.2416 7.50467V7.8352H16.3502L16.3562 7.81557C16.3699 7.77266 16.4014 7.72563 16.4498 7.6745C16.4995 7.62245 16.5676 7.57634 16.652 7.53799C16.7374 7.49964 16.8346 7.48001 16.9419 7.48001C17.1245 7.48001 17.2665 7.52978 17.3661 7.62885C17.4642 7.727 17.514 7.87036 17.514 8.05389C17.514 8.12876 17.5003 8.18446 17.4711 8.22007C17.4432 8.25477 17.3971 8.28262 17.3336 8.30088C17.2665 8.32051 17.1524 8.34379 16.9926 8.37027C16.7812 8.4036 16.61 8.44058 16.4831 8.47984C16.3525 8.52139 16.2416 8.59444 16.1516 8.69944C16.0617 8.80445 16.0151 8.95237 16.0151 9.13955C16.0151 9.33267 16.0868 9.492 16.2279 9.61436C16.3676 9.7358 16.5365 9.79789 16.7305 9.79789C17.0296 9.79789 17.2921 9.68603 17.514 9.46415L17.5199 9.45822C17.5395 9.54724 17.5802 9.61436 17.6377 9.65682C17.7071 9.70749 17.797 9.73534 17.9057 9.73899C17.96 9.73899 18.0166 9.73443 18.0742 9.72393C18.1216 9.7148 18.176 9.69608 18.2371 9.66869L18.2531 9.66184V9.49337L18.2175 9.50205ZM17.4943 9.19479C17.493 9.19708 17.4898 9.20529 17.4733 9.22493C17.4574 9.24684 17.44 9.26647 17.4204 9.28382C17.4007 9.30254 17.3811 9.31943 17.3651 9.33678C17.3167 9.38426 17.2533 9.42809 17.1757 9.46735C17.1008 9.5057 17.0314 9.52396 16.9725 9.52396C16.82 9.52396 16.7009 9.48561 16.6191 9.40937C16.5383 9.33404 16.4968 9.2199 16.4968 9.06742C16.4968 8.96469 16.5224 8.87795 16.5744 8.81084C16.6264 8.74373 16.6922 8.69168 16.7707 8.65698C16.8529 8.62 16.9419 8.59215 17.0355 8.57161C17.1328 8.55061 17.2378 8.53006 17.3487 8.51043L17.4953 8.47939V9.19479H17.4943Z" fill="black"/>
<path d="M21.4836 7.20651C21.1549 7.20651 20.8851 7.36585 20.681 7.67995C20.6253 7.54298 20.5327 7.43159 20.4057 7.34804C20.2624 7.25399 20.0999 7.20605 19.9223 7.20605C19.8031 7.20605 19.6935 7.22569 19.5958 7.26495C19.4981 7.30376 19.4109 7.35991 19.3365 7.43204C19.284 7.48272 19.2347 7.54161 19.1895 7.60827V7.23436L19.1585 7.23664C19.111 7.23984 19.0704 7.24349 19.037 7.24669C18.9699 7.25354 18.9325 7.25308 18.8681 7.24669C18.8339 7.24349 18.7946 7.23984 18.7508 7.23664L18.7197 7.23436V9.75905L18.7512 9.75585C18.7864 9.75266 18.8229 9.74901 18.8617 9.74581C18.9434 9.73851 18.9927 9.74033 19.0178 9.74307C19.0325 9.7449 19.0512 9.74672 19.0745 9.74809C19.0968 9.74946 19.1247 9.7522 19.158 9.75585L19.19 9.75905V8.22826C19.19 8.08947 19.2055 7.96711 19.2365 7.86439C19.2662 7.76532 19.3242 7.68451 19.4082 7.62288C19.4922 7.5617 19.6173 7.5302 19.7798 7.5302C19.9588 7.5302 20.0903 7.58499 20.1715 7.69319C20.2546 7.80413 20.2966 7.98081 20.2966 8.21776V9.75859L20.3286 9.75494C20.3583 9.75174 20.3843 9.74901 20.4067 9.74764C20.4299 9.74581 20.4491 9.74444 20.4646 9.74261C20.4788 9.74124 20.5012 9.74033 20.5318 9.74033C20.5605 9.74033 20.5815 9.74079 20.5952 9.74261C20.6098 9.74444 20.6285 9.74627 20.6518 9.74764C20.6742 9.74901 20.702 9.75174 20.7354 9.7554L20.7673 9.75859V8.336C20.7673 8.10179 20.807 7.90548 20.8847 7.75162C20.9604 7.60233 21.1056 7.52974 21.3293 7.52974C21.4804 7.52974 21.5969 7.56536 21.6749 7.63566C21.7539 7.70688 21.8069 7.80139 21.8334 7.91735C21.8603 8.03697 21.874 8.18443 21.874 8.35609V9.75859L21.9059 9.75494C21.9361 9.75174 21.9648 9.74855 21.9936 9.74627L22.0507 9.74124C22.0593 9.74033 22.079 9.74033 22.1096 9.74033C22.1365 9.74033 22.1575 9.74079 22.1717 9.74261C22.1872 9.74444 22.2064 9.74627 22.2292 9.74764C22.2516 9.74901 22.2794 9.75174 22.3127 9.7554L22.3447 9.75859V8.2383C22.3447 7.89818 22.2799 7.63932 22.1516 7.46811C22.0192 7.29462 21.795 7.20651 21.4836 7.20651Z" fill="black"/>
<path d="M25.3008 7.95664C25.2547 7.81466 25.183 7.68409 25.0903 7.5695C24.9967 7.45399 24.8821 7.36359 24.7506 7.3015C24.6192 7.23804 24.4685 7.20654 24.3046 7.20654C24.0284 7.20654 23.8284 7.26087 23.7106 7.36725C23.6148 7.45399 23.5294 7.56265 23.4532 7.69185V7.23439L23.423 7.23667C23.3755 7.24033 23.334 7.24352 23.2993 7.24718C23.2313 7.25402 23.1989 7.25311 23.1331 7.24718C23.0984 7.24352 23.0578 7.24033 23.014 7.23667L22.9829 7.23439V10.7699H23.4532V9.36463C23.6335 9.65225 23.8933 9.79926 24.2274 9.79926C24.5685 9.79926 24.847 9.67234 25.0561 9.42352C25.2643 9.17607 25.3702 8.83641 25.3702 8.41365C25.3697 8.2534 25.3469 8.09863 25.3008 7.95664ZM24.7885 8.99757C24.7424 9.15827 24.6685 9.28747 24.568 9.38335C24.4685 9.47694 24.3393 9.52442 24.1809 9.52442C23.938 9.52442 23.7604 9.43904 23.6376 9.2619C23.5152 9.08385 23.4527 8.84919 23.4527 8.56294C23.4527 8.38625 23.476 8.20957 23.5221 8.03608C23.5659 7.86488 23.6435 7.72061 23.7522 7.60739C23.8586 7.49645 24.0005 7.43984 24.1763 7.43984C24.3402 7.43984 24.4754 7.48595 24.5762 7.57634C24.6781 7.66765 24.7506 7.78909 24.7936 7.93701C24.8374 8.08859 24.8593 8.25614 24.8593 8.4351C24.8593 8.64511 24.8351 8.83458 24.7885 8.99757Z" fill="black"/>
<path d="M28.0944 7.8142C27.9917 7.62017 27.8461 7.46769 27.6621 7.36359C27.4772 7.2595 27.2635 7.20654 27.0252 7.20654C26.8344 7.20654 26.6577 7.23667 26.4984 7.29648C26.339 7.35538 26.1957 7.44303 26.0719 7.55763C25.9496 7.67085 25.8537 7.80736 25.7875 7.96212C25.7218 8.11689 25.688 8.28901 25.688 8.47528C25.688 8.74236 25.7432 8.97885 25.8519 9.17881C25.9615 9.37969 26.113 9.53446 26.3039 9.64084C26.4933 9.74493 26.7047 9.79926 26.9312 9.79926C27.1366 9.79926 27.3252 9.76365 27.4891 9.69425C27.6543 9.62486 27.7954 9.52807 27.9073 9.40298C28.0205 9.27925 28.1058 9.13727 28.1625 8.98022C28.2191 8.82317 28.2469 8.65881 28.2469 8.49263C28.2483 8.23559 28.1962 8.00686 28.0944 7.8142ZM27.6589 8.96013C27.6068 9.13133 27.5215 9.28017 27.406 9.40252C27.2914 9.52168 27.1462 9.58149 26.9727 9.58149C26.796 9.58149 26.6481 9.53309 26.5335 9.43722C26.4166 9.34134 26.3313 9.21442 26.2792 9.06148C26.2263 8.90671 26.1993 8.73551 26.1993 8.55289C26.1993 8.35886 26.2258 8.17259 26.2792 8.00047C26.3322 7.83064 26.4203 7.68957 26.5426 7.58228C26.6627 7.4759 26.8234 7.42158 27.0197 7.42158C27.1489 7.42158 27.2612 7.45262 27.3535 7.5138C27.4457 7.57497 27.5224 7.65715 27.5776 7.75759C27.6356 7.8594 27.6758 7.97262 27.7 8.09133C27.7255 8.21277 27.7383 8.33877 27.7383 8.46432C27.7388 8.62046 27.7123 8.78573 27.6589 8.96013Z" fill="black"/>
<path d="M30.7466 7.86488C30.6877 7.71605 30.6091 7.59232 30.511 7.49736C30.4128 7.40149 30.2973 7.3289 30.1668 7.27913C30.0362 7.23074 29.8988 7.20654 29.7568 7.20654C29.5048 7.20654 29.2843 7.26315 29.1016 7.37501C28.919 7.48686 28.7793 7.64437 28.6866 7.84068C28.5953 8.03471 28.5479 8.25796 28.5479 8.50267C28.5479 8.7661 28.6008 8.99848 28.7049 9.19251C28.809 9.38791 28.9578 9.53903 29.1464 9.64312C29.3345 9.74584 29.5509 9.79926 29.791 9.79926C29.9426 9.79926 30.0983 9.77141 30.2521 9.71617C30.406 9.66184 30.5539 9.58559 30.6922 9.48972L30.705 9.48059L30.711 9.12722L30.6612 9.17562C30.4211 9.408 30.1722 9.52442 29.9193 9.52442C29.7865 9.52442 29.6641 9.50022 29.5554 9.45274C29.4468 9.40526 29.3532 9.33815 29.2792 9.25186C29.2044 9.16512 29.1478 9.06468 29.1108 8.95282C29.0724 8.8396 29.0542 8.71816 29.0542 8.59124C29.0542 8.55883 29.0542 8.53235 29.0564 8.51135H29.7568C30.1001 8.51135 30.4512 8.51728 30.7991 8.52641L30.8269 8.52778L30.8292 8.49993C30.8306 8.4803 30.8329 8.46158 30.8329 8.4456C30.8338 8.42962 30.8338 8.40862 30.8338 8.38443C30.8329 8.1872 30.8041 8.01143 30.7466 7.86488ZM29.0606 8.26253C29.0733 8.12283 29.1044 7.98997 29.1551 7.86488C29.2094 7.73203 29.287 7.62474 29.3874 7.54256C29.487 7.46266 29.6102 7.42249 29.755 7.42249C29.9768 7.42249 30.128 7.5001 30.2193 7.65807C30.3083 7.8142 30.3581 8.01737 30.3672 8.26253H29.0606Z" fill="black"/>
<path d="M32.4689 7.20654C32.241 7.20654 32.0251 7.35766 31.8238 7.66035V7.23485L31.7927 7.23713C31.7452 7.24033 31.7046 7.24398 31.6699 7.24718C31.6366 7.25037 31.6096 7.2522 31.5886 7.2522C31.5658 7.2522 31.5375 7.25083 31.5033 7.24718C31.4677 7.24398 31.4284 7.24033 31.3846 7.23713L31.3535 7.23485V9.75999L31.3855 9.75634C31.4151 9.75315 31.4444 9.74995 31.4727 9.74767L31.5293 9.74265C31.538 9.74173 31.5576 9.74173 31.5882 9.74173C31.6156 9.74173 31.6361 9.74219 31.6503 9.74401C31.6658 9.74584 31.685 9.74767 31.7083 9.74904C31.7306 9.75041 31.7585 9.75315 31.7918 9.7568L31.8238 9.75999V8.39538C31.8238 8.23742 31.8343 8.11324 31.8557 8.0265C31.8763 7.94158 31.9265 7.8521 32.005 7.76079C32.0397 7.72107 32.0858 7.69094 32.1415 7.67085C32.1981 7.6503 32.2556 7.6398 32.3127 7.6398C32.3451 7.6398 32.3876 7.65213 32.4387 7.67587C32.5236 7.71605 32.5437 7.72061 32.5501 7.72198L32.5798 7.72883L32.6588 7.24398L32.6382 7.23485C32.5967 7.21567 32.5396 7.20654 32.4689 7.20654Z" fill="black"/>
<path d="M34.3273 7.20654C33.989 7.20654 33.7206 7.35035 33.5288 7.63432V7.23439L33.4978 7.23667C33.4503 7.23987 33.4097 7.24352 33.375 7.24672C33.3417 7.24991 33.3147 7.25174 33.2937 7.25174C33.2709 7.25174 33.2426 7.25037 33.2083 7.24672C33.1727 7.24352 33.1335 7.23987 33.0896 7.23667L33.0586 7.23439V9.75954L33.0906 9.75589C33.1202 9.75269 33.1494 9.74949 33.1778 9.74721L33.2344 9.74219C33.243 9.74128 33.2627 9.74128 33.2933 9.74128C33.3207 9.74128 33.3412 9.74173 33.3553 9.74356C33.3709 9.74538 33.39 9.74721 33.4133 9.74858C33.4357 9.74995 33.4635 9.75269 33.4964 9.75634L33.5284 9.75954V8.5328C33.5284 8.1945 33.5768 7.93838 33.6717 7.77266C33.7653 7.60967 33.9292 7.53069 34.1735 7.53069C34.3164 7.53069 34.4287 7.56493 34.5077 7.63296C34.5871 7.70144 34.6419 7.79594 34.6707 7.91327C34.7003 8.03471 34.7149 8.184 34.7149 8.35658V9.75908L34.7469 9.75543C34.7766 9.75223 34.8026 9.74949 34.825 9.74812C34.8478 9.7463 34.8674 9.74493 34.8825 9.7431C34.8971 9.74173 34.9195 9.74082 34.9496 9.74082C34.9784 9.74082 34.9994 9.74128 35.0131 9.7431C35.0277 9.74493 35.0464 9.74675 35.0697 9.74812C35.092 9.74949 35.1199 9.75223 35.1532 9.75589L35.1852 9.75908V8.23879C35.1852 7.88862 35.1185 7.62656 34.9866 7.46038C34.8542 7.29192 34.6318 7.20654 34.3273 7.20654Z" fill="black"/>
<path d="M37.9645 9.50205C37.8399 9.53218 37.7728 9.53081 37.7449 9.50342C37.7289 9.48744 37.7193 9.46644 37.7171 9.44087C37.7125 9.40846 37.7102 9.36006 37.7102 9.29432V8.10091C37.7102 7.80507 37.6363 7.58091 37.4897 7.43208C37.3432 7.28187 37.1268 7.20654 36.8474 7.20654C36.5652 7.20654 36.2812 7.30379 36.0014 7.49554L35.9886 7.50467V7.8352H36.0959L36.1027 7.81557C36.1155 7.77266 36.1479 7.72563 36.1963 7.6745C36.2447 7.62245 36.3132 7.57634 36.3986 7.53799C36.483 7.49964 36.5798 7.48001 36.6885 7.48001C36.8711 7.48001 37.0131 7.52978 37.1112 7.62885C37.2108 7.727 37.2601 7.87036 37.2601 8.05389C37.2601 8.12876 37.245 8.18446 37.2172 8.22007C37.1884 8.25477 37.1423 8.28262 37.0797 8.30088C37.0117 8.32051 36.8971 8.34379 36.7387 8.37027C36.5259 8.4036 36.3552 8.44058 36.2292 8.47984C36.0986 8.52139 35.9868 8.59444 35.8977 8.69944C35.8078 8.80445 35.7612 8.95237 35.7612 9.13955C35.7612 9.33267 35.8329 9.492 35.974 9.61436C36.1128 9.7358 36.2826 9.79789 36.4766 9.79789C36.7748 9.79789 37.0382 9.68603 37.2587 9.46415L37.2646 9.45822C37.2856 9.54724 37.3249 9.61436 37.3838 9.65682C37.4518 9.70749 37.5422 9.73534 37.6509 9.73899C37.7066 9.73899 37.7627 9.73443 37.8198 9.72393C37.8673 9.7148 37.9225 9.69608 37.9828 9.66869L38.0001 9.66184V9.49337L37.9645 9.50205ZM37.24 9.19479C37.24 9.19708 37.2354 9.20529 37.2203 9.22493C37.2044 9.24684 37.1856 9.26647 37.1674 9.28382C37.1464 9.30254 37.1281 9.31943 37.1108 9.33678C37.0633 9.38426 36.9998 9.42809 36.9227 9.46735C36.8464 9.5057 36.7784 9.52396 36.7195 9.52396C36.567 9.52396 36.4479 9.48561 36.3662 9.40937C36.284 9.33404 36.2424 9.2199 36.2424 9.06742C36.2424 8.96469 36.2689 8.87795 36.32 8.81084C36.3721 8.74373 36.4392 8.69168 36.5177 8.65698C36.5985 8.62 36.6876 8.59215 36.7812 8.57161C36.8784 8.55061 36.9843 8.53006 37.0953 8.51043L37.2409 8.47939V9.19479H37.24Z" fill="black"/>
<path d="M24.8725 3.93871C24.8725 3.81864 24.7867 3.74331 24.6639 3.74331C24.5461 3.74331 24.4233 3.82868 24.3375 3.98665C24.2411 4.16561 24.2361 4.37425 24.2174 4.61805C24.1959 4.88558 24.1717 5.10746 24.0384 5.30286C23.9101 5.49279 23.696 5.59962 23.4472 5.59962C23.097 5.59962 22.8774 5.39919 22.8774 5.13166C22.8774 4.98191 22.9468 4.88832 23.0459 4.88832C23.1103 4.88832 23.15 4.93124 23.15 4.99013C23.15 5.04081 23.1126 5.07824 23.0646 5.07824C23.0459 5.07824 23.0272 5.0755 23.0057 5.06226C22.971 5.09422 22.9601 5.1344 22.9601 5.19329C22.9601 5.42613 23.1473 5.57862 23.423 5.57862C23.6531 5.57862 23.8458 5.45581 23.9499 5.22845C24.0435 5.02254 24.0435 4.74953 24.0809 4.42584C24.1078 4.20122 24.1585 4.0355 24.2813 3.90447C24.3964 3.78166 24.5434 3.71729 24.6986 3.71729C24.8913 3.71729 25.0168 3.81636 25.0168 3.93917C25.0168 3.99806 24.9848 4.04874 24.9232 4.08891C24.894 4.10763 24.8643 4.12087 24.8296 4.12087C24.8241 4.12087 24.8164 4.11813 24.8082 4.11813C24.8511 4.05924 24.8725 4.00263 24.8725 3.93871Z" fill="#A9AAAC"/>
<path d="M25.4018 4.67166L25.5835 4.66344C25.2306 5.13414 25.0781 5.43911 25.0781 5.498C25.0781 5.53544 25.1023 5.5569 25.1424 5.5569C25.2707 5.5569 25.5355 5.32954 25.8912 4.85336L25.9072 4.8666C25.5515 5.35602 25.2707 5.58885 25.1155 5.58885C25.0324 5.58885 24.9712 5.5327 24.9712 5.45509C24.9712 5.40669 24.9954 5.34826 25.0434 5.27841L25.0352 5.27019C24.8667 5.48431 24.6795 5.5779 24.5672 5.5779C24.4654 5.5779 24.396 5.50302 24.396 5.37748C24.396 5.26517 24.4814 5.07022 24.6476 4.89902C24.8078 4.73329 24.995 4.64746 25.1237 4.64746C25.2228 4.64746 25.2895 4.70909 25.3082 4.82414L25.4018 4.67166ZM25.121 4.66618C25.0434 4.66618 24.8722 4.76799 24.7224 4.97663C24.6101 5.13459 24.5567 5.29758 24.5567 5.39939C24.5567 5.47974 24.5941 5.5222 24.6558 5.5222C24.7201 5.5222 24.8297 5.46331 24.9498 5.33502C25.1342 5.13459 25.2278 4.94467 25.2278 4.80269C25.2283 4.71457 25.1854 4.66618 25.121 4.66618Z" fill="#A9AAAC"/>
<path d="M26.0915 4.79705C26.0755 4.82125 25.9951 4.9226 25.8536 5.11253L25.8669 5.118C26.1075 4.78929 26.3161 4.62585 26.501 4.62585C26.5973 4.62585 26.664 4.68748 26.664 4.76236C26.664 4.88014 26.5544 4.98698 26.4261 5.17142C26.3193 5.32391 26.2549 5.42024 26.2549 5.48461C26.2549 5.52205 26.2791 5.5435 26.327 5.5435C26.4553 5.5435 26.7416 5.32665 27.0895 4.85093L27.1082 4.86417C26.7603 5.34308 26.4768 5.57592 26.3006 5.57592C26.2015 5.57592 26.1426 5.51428 26.1426 5.41795C26.1426 5.3029 26.2417 5.17462 26.3887 4.97648C26.4878 4.84271 26.5412 4.75962 26.5412 4.71716C26.5412 4.6852 26.5115 4.65553 26.4768 4.65553C26.2896 4.65553 25.9367 4.95228 25.6235 5.54853L25.4336 5.56177L26.5996 3.76983L26.795 3.76709L26.0915 4.79705Z" fill="#A9AAAC"/>
<path d="M27.787 4.67166L27.9687 4.66344C27.6158 5.13414 27.4633 5.43911 27.4633 5.498C27.4633 5.53544 27.4875 5.5569 27.5277 5.5569C27.656 5.5569 27.9208 5.32954 28.2764 4.85336L28.2924 4.8666C27.9368 5.35602 27.656 5.58885 27.5008 5.58885C27.4177 5.58885 27.3565 5.5327 27.3565 5.45509C27.3565 5.40669 27.3807 5.34826 27.4286 5.27841L27.4204 5.27019C27.2519 5.48431 27.0648 5.5779 26.9525 5.5779C26.8506 5.5779 26.7812 5.50302 26.7812 5.37748C26.7812 5.26517 26.8666 5.07022 27.0328 4.89902C27.1931 4.73329 27.3802 4.64746 27.509 4.64746C27.6081 4.64746 27.6747 4.70909 27.6934 4.82414L27.787 4.67166ZM27.5062 4.66618C27.4286 4.66618 27.2574 4.76799 27.1077 4.97663C26.9954 5.13459 26.942 5.29758 26.942 5.39939C26.942 5.47974 26.9794 5.5222 27.041 5.5222C27.1054 5.5222 27.215 5.46331 27.335 5.33502C27.5195 5.13459 27.6131 4.94467 27.6131 4.80269C27.6131 4.71457 27.5706 4.66618 27.5062 4.66618Z" fill="#A9AAAC"/>
<path d="M28.33 5.01675C28.2122 5.19845 28.1428 5.32948 28.1428 5.43403C28.1428 5.51712 28.1748 5.55456 28.2551 5.55456C28.3432 5.55456 28.5309 5.44498 28.6697 5.24182C28.7875 5.07336 28.8541 4.93959 28.8623 4.81906C28.8464 4.77615 28.8354 4.73871 28.8354 4.70675C28.8354 4.66932 28.8674 4.63736 28.9021 4.63736C28.961 4.63736 29.0116 4.70401 29.0116 4.8113C29.0116 4.85422 28.9984 4.88891 28.9984 4.91859C28.9984 4.96653 29.0678 5.0309 29.1774 5.0309C29.2787 5.0309 29.3755 4.97748 29.4554 4.87065L29.4714 4.88115C29.386 4.99346 29.2897 5.04962 29.1691 5.04962C29.0915 5.04962 29.0354 5.01994 28.9874 4.95877C28.9258 5.11125 28.8404 5.23178 28.7281 5.33039C28.5355 5.49612 28.3592 5.57921 28.2227 5.57921C28.0807 5.57921 28.0059 5.50707 28.0059 5.37331C28.0059 5.25552 28.078 5.15919 28.1556 5.03912L28.9742 3.77677L29.1641 3.76855C29.0039 3.98404 28.7309 4.40132 28.33 5.01675Z" fill="#A9AAAC"/>
<path d="M30.1615 4.67166L30.3432 4.66344C29.9903 5.13414 29.8378 5.43911 29.8378 5.498C29.8378 5.53544 29.862 5.5569 29.9022 5.5569C30.0305 5.5569 30.2953 5.32954 30.6509 4.85336L30.6669 4.8666C30.3113 5.35602 30.0305 5.58885 29.8753 5.58885C29.7922 5.58885 29.731 5.5327 29.731 5.45509C29.731 5.40669 29.7552 5.34826 29.8031 5.27841L29.7949 5.27019C29.6265 5.48431 29.4393 5.5779 29.327 5.5779C29.2252 5.5779 29.1558 5.50302 29.1558 5.37748C29.1558 5.26517 29.2411 5.07022 29.4073 4.89902C29.5676 4.73329 29.7547 4.64746 29.8835 4.64746C29.9826 4.64746 30.0492 4.70909 30.0679 4.82414L30.1615 4.67166ZM29.8808 4.66618C29.8031 4.66618 29.6319 4.76799 29.4822 4.97663C29.3699 5.13459 29.3165 5.29758 29.3165 5.39939C29.3165 5.47974 29.3539 5.5222 29.4155 5.5222C29.4799 5.5222 29.5895 5.46331 29.7096 5.33502C29.894 5.13459 29.9876 4.94467 29.9876 4.80269C29.988 4.71457 29.9451 4.66618 29.8808 4.66618Z" fill="#A9AAAC"/>
<path d="M30.9288 4.68456H31.2763L31.2576 4.71424H30.9074L30.5705 5.24383C30.5116 5.33742 30.4819 5.42279 30.4819 5.47393C30.4819 5.53008 30.5116 5.55428 30.5782 5.55428C30.712 5.55428 31.0594 5.35112 31.3941 4.86672L31.4128 4.87722C31.0731 5.35888 30.7334 5.5835 30.5408 5.5835C30.4362 5.5835 30.3618 5.50588 30.3618 5.40179C30.3618 5.34564 30.3805 5.28126 30.4207 5.22009L30.7417 4.71469H30.5892L30.6106 4.68502H30.7576L30.9608 4.36955L31.1293 4.36133L30.9288 4.68456Z" fill="#A9AAAC"/>
<path d="M1.0191 3.15221C1.0191 3.15221 0.803159 2.65458 0.687653 2.61029C0.572148 2.56601 0.323788 4.13652 0.447968 4.47436C0.447968 4.47436 1.09169 4.98067 1.19761 5.42078L1.58202 4.93228L1.8386 4.01508L1.0191 3.15221Z" fill="url(#paint0_linear_10036_48644)" stroke="#A3822E" stroke-width="0.3" stroke-miterlimit="10"/>
<path d="M1.15257 4.83979C1.15257 4.83979 0.795098 4.0938 0.769531 3.11816" stroke="#A3822E" stroke-width="0.1" stroke-miterlimit="10"/>
<path d="M10.2682 3.15221C10.2682 3.15221 10.4842 2.65458 10.5997 2.61029C10.7152 2.56601 10.9635 4.13652 10.8394 4.47436C10.8394 4.47436 10.1956 4.98067 10.0897 5.42078L9.70531 4.93228L9.44873 4.01508L10.2682 3.15221Z" fill="url(#paint1_linear_10036_48644)" stroke="#A3822E" stroke-width="0.3" stroke-miterlimit="10"/>
<path d="M10.1348 4.83979C10.1348 4.83979 10.4922 4.0938 10.5178 3.11816" stroke="#A3822E" stroke-width="0.1" stroke-miterlimit="10"/>
<path d="M2.29573 1.94112C2.29573 1.94112 2.01907 1.38916 1.8821 1.38916C1.74514 1.38916 1.42008 2.33923 1.56983 2.80582C1.71957 3.2724 1.93004 3.32582 1.878 3.61344C1.82641 3.90107 2.7121 3.11353 2.72078 3.04961C2.72945 2.98524 2.66964 2.29631 2.66964 2.29631L2.29573 1.94112Z" fill="url(#paint2_linear_10036_48644)" stroke="#A3822E" stroke-width="0.3" stroke-miterlimit="10"/>
<path d="M2.98824 0.794434C2.98824 0.794434 2.03269 1.02271 2.36597 2.99041C2.69925 4.95812 3.40096 2.71146 3.40096 2.71146C3.40096 2.71146 4.43229 1.88968 4.06431 1.69291C3.69634 1.49614 2.98824 0.794434 2.98824 0.794434Z" fill="url(#paint3_linear_10036_48644)" stroke="#A3822E" stroke-width="0.3" stroke-miterlimit="10"/>
<path d="M2.36572 2.99039C2.36572 2.99039 2.68576 1.42764 3.44773 1.34866C4.2097 1.26968 4.33799 2.16953 4.33799 2.16953L2.72091 2.78404L2.36572 2.99039Z" fill="url(#paint4_linear_10036_48644)" stroke="#A3822E" stroke-width="0.3" stroke-miterlimit="10"/>
<path d="M1.68285 9.94944L1.15234 10.1238C1.15234 10.1238 1.57145 10.5516 1.93121 10.4617C2.29051 10.3713 2.7402 9.88644 2.7402 9.88644C2.7402 9.88644 2.78221 9.57827 2.73381 9.56275C2.68542 9.54723 1.70659 9.78098 1.70659 9.78098L1.68285 9.94944Z" fill="url(#paint5_linear_10036_48644)" stroke="#A3822E" stroke-width="0.3" stroke-miterlimit="10"/>
<path d="M1.08357 8.75182L0.40332 8.76506C0.40332 8.76506 0.935651 9.66948 1.57801 9.89044C1.57801 9.89044 1.85467 10.1251 2.37422 9.92423C2.89377 9.72335 3.00927 9.37866 3.00927 9.37866L2.07245 8.49707C2.07245 8.49707 1.49674 8.5619 1.45429 8.56783C1.41183 8.57377 1.08357 8.75182 1.08357 8.75182Z" fill="url(#paint6_linear_10036_48644)" stroke="#A3822E" stroke-width="0.3" stroke-miterlimit="10"/>
<path d="M1.72744 8.85582C1.72744 8.85582 0.859089 8.92749 0.455048 8.22122C0.0510062 7.51495 0.114466 7.23874 0.114466 7.23874C0.114466 7.23874 0.0825077 7.10406 0.591098 7.46153L1.7772 7.5469C1.7772 7.5469 1.83701 7.88931 1.83929 8.03586C1.84157 8.18241 1.93151 8.63804 1.93151 8.68324C1.93151 8.72844 1.72744 8.85582 1.72744 8.85582Z" fill="url(#paint7_linear_10036_48644)" stroke="#A3822E" stroke-width="0.3" stroke-miterlimit="10"/>
<path d="M2.56222 9.69577C2.56222 9.69577 2.00112 9.42139 1.68017 8.7667C1.35922 8.11202 1.45327 7.91342 1.45327 7.91342L1.85594 7.83398C1.85594 7.83398 2.09106 8.086 2.18739 8.32386C2.28372 8.56126 2.68868 9.08126 2.78501 9.16481C2.88088 9.24836 2.88728 9.51681 2.88728 9.51681L2.56222 9.69577Z" fill="url(#paint8_linear_10036_48644)" stroke="#A3822E" stroke-width="0.3" stroke-miterlimit="10"/>
<path d="M0.504574 6.00643C0.504574 6.00643 0.153035 5.77588 0.011963 5.77588C0.011963 5.77588 -0.0473877 6.37943 0.258497 6.96335C0.564381 7.54727 0.903594 7.85224 1.55554 7.92803C1.55554 7.92803 2.0728 6.98937 1.75185 6.69399C1.42999 6.39815 0.504574 6.00643 0.504574 6.00643Z" fill="url(#paint9_linear_10036_48644)" stroke="#A3822E" stroke-width="0.3" stroke-miterlimit="10"/>
<path d="M1.19821 5.42087C1.19821 5.42087 1.21008 4.94926 0.302926 4.32471C0.302926 4.32471 -0.193338 5.71123 0.940718 6.38737L1.17858 6.54945L1.45433 5.92672L1.19821 5.42087Z" fill="url(#paint10_linear_10036_48644)" stroke="#A3822E" stroke-width="0.3" stroke-miterlimit="10"/>
<path d="M1.92008 3.59296C1.92008 3.59296 1.91186 2.72416 1.15217 2.39453C1.15217 2.39453 0.644496 3.4003 1.61191 4.08055C1.61146 4.08101 1.95432 3.84862 1.92008 3.59296Z" fill="url(#paint11_linear_10036_48644)" stroke="#A3822E" stroke-width="0.3" stroke-miterlimit="10"/>
<path d="M2.22584 9.62509C2.18247 9.63605 1.83504 9.5767 1.33695 9.31738C1.17944 9.23566 1.00732 9.13385 0.824707 9.0083" stroke="#A3822E" stroke-width="0.1" stroke-miterlimit="10"/>
<path d="M1.35978 8.49694C1.35978 8.49694 0.692313 8.07327 0.40332 7.54688" stroke="#A3822E" stroke-width="0.1" stroke-miterlimit="10"/>
<path d="M1.12616 7.30303C1.12616 7.30303 0.440433 6.8789 0.110352 6.06396" stroke="#A3822E" stroke-width="0.1" stroke-miterlimit="10"/>
<path d="M1.0192 5.92617C1.0192 5.92617 0.538001 5.50569 0.40332 4.63232" stroke="#A3822E" stroke-width="0.1" stroke-miterlimit="10"/>
<path d="M1.53094 3.69053L1.23145 2.61035" stroke="#A3822E" stroke-width="0.1" stroke-miterlimit="10"/>
<path d="M8.99182 1.94112C8.99182 1.94112 9.26849 1.38916 9.40545 1.38916C9.54241 1.38916 9.86747 2.33923 9.71773 2.80582C9.56798 3.2724 9.35751 3.32582 9.40956 3.61344C9.46115 3.90107 8.57545 3.11398 8.56678 3.04961C8.5581 2.98524 8.61791 2.29631 8.61791 2.29631L8.99182 1.94112Z" fill="url(#paint12_linear_10036_48644)" stroke="#A3822E" stroke-width="0.3" stroke-miterlimit="10"/>
<path d="M8.29897 0.794434C8.29897 0.794434 9.25452 1.02271 8.92124 2.99041C8.58797 4.95812 7.88626 2.71146 7.88626 2.71146C7.88626 2.71146 6.85492 1.88968 7.2229 1.69291C7.59087 1.49614 8.29897 0.794434 8.29897 0.794434Z" fill="url(#paint13_linear_10036_48644)" stroke="#A3822E" stroke-width="0.3" stroke-miterlimit="10"/>
<path d="M8.92149 2.99039C8.92149 2.99039 8.60145 1.42764 7.83948 1.34866C7.07751 1.26968 6.94922 2.16953 6.94922 2.16953L8.56584 2.78449L8.92149 2.99039Z" fill="url(#paint14_linear_10036_48644)" stroke="#A3822E" stroke-width="0.3" stroke-miterlimit="10"/>
<path d="M9.60454 9.94944L10.135 10.1238C10.135 10.1238 9.71593 10.5516 9.35618 10.4617C8.99688 10.3713 8.54718 9.88644 8.54718 9.88644C8.54718 9.88644 8.50518 9.57827 8.55357 9.56275C8.60197 9.54723 9.5808 9.78098 9.5808 9.78098L9.60454 9.94944Z" fill="url(#paint15_linear_10036_48644)" stroke="#A3822E" stroke-width="0.3" stroke-miterlimit="10"/>
<path d="M10.204 8.75182L10.8843 8.76506C10.8843 8.76506 10.3519 9.66948 9.70959 9.89044C9.70959 9.89044 9.43292 10.1251 8.91337 9.92423C8.39383 9.72335 8.27832 9.37866 8.27832 9.37866L9.21515 8.49707C9.21515 8.49707 9.79085 8.5619 9.83331 8.56783C9.87668 8.57423 10.204 8.75182 10.204 8.75182Z" fill="url(#paint16_linear_10036_48644)" stroke="#A3822E" stroke-width="0.3" stroke-miterlimit="10"/>
<path d="M9.56 8.85585C9.56 8.85585 10.4283 8.92753 10.8324 8.22125C11.2364 7.51498 11.1725 7.23923 11.1725 7.23923C11.1725 7.23923 11.2045 7.10454 10.6959 7.46202L9.50978 7.54739C9.50978 7.54739 9.44997 7.8898 9.44769 8.03635C9.44541 8.1829 9.35547 8.63853 9.35547 8.68373C9.35547 8.72893 9.56 8.85585 9.56 8.85585Z" fill="url(#paint17_linear_10036_48644)" stroke="#A3822E" stroke-width="0.3" stroke-miterlimit="10"/>
<path d="M8.72447 9.69577C8.72447 9.69577 9.28557 9.42139 9.60652 8.7667C9.92747 8.11202 9.83342 7.91342 9.83342 7.91342L9.43075 7.83398C9.43075 7.83398 9.19563 8.086 9.0993 8.32386C9.00297 8.56126 8.59801 9.08126 8.50168 9.16481C8.40581 9.24836 8.39941 9.51681 8.39941 9.51681L8.72447 9.69577Z" fill="url(#paint18_linear_10036_48644)" stroke="#A3822E" stroke-width="0.3" stroke-miterlimit="10"/>
<path d="M10.7829 6.00643C10.7829 6.00643 11.1345 5.77588 11.2755 5.77588C11.2755 5.77588 11.3349 6.37943 11.029 6.96335C10.7236 7.54727 10.3839 7.85224 9.73197 7.92803C9.73197 7.92803 9.21471 6.98937 9.53566 6.69399C9.85707 6.39815 10.7829 6.00643 10.7829 6.00643Z" fill="url(#paint19_linear_10036_48644)" stroke="#A3822E" stroke-width="0.3" stroke-miterlimit="10"/>
<path d="M10.0891 5.42087C10.0891 5.42087 10.0773 4.94926 10.9844 4.32471C10.9844 4.32471 11.4807 5.71123 10.3466 6.38737L10.1088 6.54945L9.83301 5.92672L10.0891 5.42087Z" fill="url(#paint20_linear_10036_48644)" stroke="#A3822E" stroke-width="0.3" stroke-miterlimit="10"/>
<path d="M9.36715 3.59296C9.36715 3.59296 9.37537 2.72416 10.1351 2.39453C10.1351 2.39453 10.6427 3.4003 9.67532 4.08055C9.67532 4.08101 9.33291 3.84862 9.36715 3.59296Z" fill="url(#paint21_linear_10036_48644)" stroke="#A3822E" stroke-width="0.3" stroke-miterlimit="10"/>
<path d="M2.85782 9.40164C2.81354 9.38109 1.83105 10.6832 1.83105 10.6832C1.83105 10.6832 3.03998 12.0154 5.75642 12.0154C8.47286 12.0154 9.43982 10.5631 9.43982 10.5631L8.38703 9.28613C8.38703 9.28613 6.56405 11.0931 2.85782 9.40164Z" fill="url(#paint22_linear_10036_48644)" stroke="#A3822E" stroke-width="0.3" stroke-miterlimit="10"/>
<path d="M2.84522 10.581L2.85527 10.5879C2.85344 10.6358 2.85892 10.6764 2.8717 10.7098C2.88494 10.7431 2.90868 10.7714 2.94384 10.7951C2.9694 10.8125 2.99679 10.8216 3.02601 10.8225C3.05523 10.8234 3.08308 10.8171 3.10956 10.8034C3.13604 10.7897 3.15796 10.77 3.17485 10.7445C3.20178 10.7043 3.20954 10.6664 3.19722 10.6312C3.18489 10.5961 3.16024 10.5518 3.12326 10.4979C3.08628 10.4441 3.06254 10.3961 3.05249 10.3546C3.04245 10.313 3.05386 10.2674 3.08719 10.2181C3.12737 10.1583 3.17896 10.1258 3.2415 10.1213C3.30405 10.1167 3.3666 10.1354 3.42914 10.1774C3.45425 10.1943 3.47708 10.2153 3.49717 10.24C3.51726 10.2646 3.5305 10.2907 3.53643 10.3171C3.52365 10.3249 3.49717 10.3459 3.45653 10.3792L3.44695 10.3728C3.45471 10.34 3.45334 10.3089 3.44238 10.2797C3.43143 10.2505 3.41179 10.2263 3.38349 10.2071C3.36112 10.192 3.33738 10.1829 3.31227 10.1797C3.28716 10.1765 3.26342 10.1802 3.24059 10.1902C3.21776 10.2003 3.19904 10.2162 3.18443 10.2382C3.1575 10.2779 3.15019 10.3149 3.16206 10.35C3.17393 10.3852 3.19859 10.4299 3.23648 10.4851C3.27437 10.5404 3.29857 10.5883 3.30907 10.629C3.31957 10.6696 3.30953 10.713 3.27848 10.7591C3.25566 10.7933 3.22872 10.8198 3.19767 10.839C3.16709 10.8581 3.13376 10.87 3.0986 10.8741C3.06299 10.8787 3.02784 10.8759 2.99223 10.8664C2.95662 10.8568 2.92192 10.8408 2.88859 10.8184C2.86257 10.8011 2.837 10.7764 2.81189 10.744C2.78678 10.712 2.77218 10.6824 2.76807 10.655C2.79044 10.639 2.816 10.6143 2.84522 10.581Z" fill="black"/>
<path d="M3.83985 10.9135L3.72024 11.1577C3.71339 11.1714 3.70882 11.1819 3.70654 11.1888C3.70426 11.1956 3.7038 11.2025 3.70609 11.2084C3.70837 11.2148 3.71385 11.2198 3.72252 11.2244C3.73028 11.2281 3.74124 11.2317 3.75585 11.2349L3.74398 11.2582C3.72937 11.2577 3.71704 11.2559 3.70654 11.2532C3.69422 11.2495 3.68235 11.2454 3.67139 11.2399C3.65084 11.229 3.63623 11.2153 3.62802 11.1993C3.6198 11.1829 3.6198 11.1628 3.62802 11.139L3.61386 11.1441C3.54812 11.1669 3.48512 11.1632 3.42531 11.134C3.38696 11.1153 3.35957 11.087 3.34405 11.0495C3.32807 11.0121 3.32944 10.9742 3.34815 10.9368C3.36642 10.8998 3.38924 10.8751 3.41709 10.8633C3.44494 10.8514 3.4737 10.8478 3.50338 10.8523C3.53306 10.8569 3.57141 10.8665 3.61752 10.8806C3.65313 10.8911 3.67915 10.898 3.69513 10.9007C3.71111 10.9035 3.7248 10.9025 3.7353 10.8975C3.7458 10.8925 3.75539 10.8815 3.76361 10.8646C3.78278 10.8254 3.78689 10.7898 3.77594 10.7574C3.76498 10.7254 3.73987 10.6998 3.70106 10.6807C3.67824 10.6692 3.65541 10.6633 3.6335 10.6629C3.61112 10.6624 3.59195 10.6647 3.57597 10.6706C3.55999 10.6766 3.54766 10.6834 3.5399 10.6916L3.52803 10.6857L3.5568 10.6272C3.63213 10.6163 3.69832 10.6245 3.75494 10.6524C3.81063 10.6797 3.84624 10.7154 3.8604 10.7587C3.87592 10.803 3.86862 10.8546 3.83985 10.9135ZM3.64536 11.0966L3.72069 10.9427L3.68006 10.9322C3.65495 10.9249 3.63121 10.9185 3.60975 10.9135C3.58784 10.908 3.56684 10.9053 3.54584 10.9044C3.52529 10.9035 3.50521 10.9076 3.48694 10.9167C3.46823 10.9258 3.45362 10.9418 3.44266 10.9642C3.42668 10.997 3.42348 11.0263 3.43307 11.0518C3.44312 11.0774 3.46412 11.0979 3.49744 11.1139C3.51068 11.1203 3.52712 11.1235 3.54766 11.1231C3.56821 11.1231 3.58601 11.1203 3.60154 11.1148C3.60656 11.113 3.61204 11.1112 3.61797 11.1098C3.62391 11.108 3.62984 11.1057 3.63578 11.103C3.64126 11.1002 3.64445 11.0979 3.64536 11.0966Z" fill="black"/>
<path d="M3.93311 11.3653L4.08331 10.8247C4.09244 10.8279 4.10111 10.8311 4.10842 10.8338C4.11572 10.8366 4.12211 10.8389 4.12759 10.8402C4.13262 10.8416 4.13901 10.843 4.14677 10.8443C4.15453 10.8457 4.1632 10.8475 4.1737 10.8494L4.14677 10.9466C4.16594 10.9279 4.18557 10.9133 4.20521 10.9023C4.22529 10.8914 4.24675 10.885 4.27003 10.8822C4.29332 10.8799 4.31752 10.8818 4.34263 10.8891C4.38052 10.8996 4.41202 10.9192 4.43667 10.9475C4.46178 10.9763 4.47502 11.0092 4.47639 11.047C4.54168 10.985 4.61107 10.964 4.68503 10.9845C4.75169 11.0032 4.79369 11.0343 4.81104 11.0785C4.82839 11.1228 4.82656 11.1817 4.80647 11.2552L4.71562 11.5821C4.70832 11.5794 4.70238 11.5771 4.69736 11.5753C4.69234 11.5734 4.68869 11.5721 4.68503 11.5707C4.68184 11.5693 4.67727 11.568 4.67088 11.5661C4.66403 11.5643 4.65947 11.5629 4.65718 11.5625C4.6549 11.562 4.65079 11.5611 4.6444 11.5602C4.63801 11.5588 4.63116 11.5579 4.62431 11.557L4.70786 11.2561C4.71836 11.2178 4.7243 11.1845 4.72567 11.1557C4.72704 11.1269 4.7211 11.1018 4.70695 11.0804C4.69325 11.0589 4.6686 11.0429 4.6339 11.0333C4.58277 11.0192 4.54351 11.027 4.51611 11.0566C4.48872 11.0868 4.46772 11.1279 4.45311 11.1804L4.36819 11.4858C4.36089 11.483 4.35495 11.4808 4.35039 11.4789C4.34536 11.4771 4.34171 11.4757 4.33852 11.4744C4.33532 11.473 4.33076 11.4716 4.32391 11.4698C4.31706 11.468 4.31158 11.4666 4.30838 11.4662C4.30519 11.4657 4.30062 11.4648 4.2956 11.4639C4.29058 11.463 4.28464 11.4616 4.2778 11.4607L4.36956 11.1292C4.38463 11.0753 4.386 11.0333 4.37367 11.0023C4.3618 10.9713 4.33486 10.9503 4.29332 10.9388C4.25588 10.9283 4.22575 10.9279 4.20201 10.9366C4.17827 10.9452 4.16001 10.9603 4.14631 10.9818C4.13307 11.0028 4.12166 11.0292 4.11298 11.0603L4.02168 11.3895C4.01437 11.3867 4.00844 11.3844 4.00387 11.3826C3.99885 11.3808 3.9952 11.3794 3.992 11.378C3.9888 11.3767 3.98424 11.3753 3.97739 11.3735C3.97191 11.3721 3.96506 11.3703 3.95639 11.3689C3.94954 11.368 3.94132 11.3666 3.93311 11.3653Z" fill="black"/>
<path d="M5.07691 11.5161L5.04724 11.9183C5.03948 11.9169 5.03354 11.916 5.02852 11.9151C5.0235 11.9142 5.01939 11.9137 5.01619 11.9128C5.013 11.9124 5.00797 11.9115 5.00113 11.911C4.99382 11.9105 4.98834 11.9101 4.98515 11.9105C4.98195 11.9105 4.97739 11.9105 4.97236 11.9105C4.96734 11.9105 4.96095 11.9105 4.9541 11.911L5.0171 11.0522C5.02715 11.0536 5.03582 11.055 5.04404 11.0564C5.05226 11.0577 5.05865 11.0586 5.06413 11.0591C5.06915 11.0596 5.07554 11.0596 5.0833 11.0596C5.09106 11.0596 5.1002 11.0591 5.11115 11.0591L5.10248 11.1773H5.10476C5.12668 11.1417 5.15133 11.1134 5.17872 11.092C5.20611 11.0705 5.2504 11.0623 5.31203 11.0669C5.34856 11.0696 5.38097 11.0787 5.40882 11.0952C5.43713 11.1111 5.46041 11.1326 5.47913 11.1595C5.49785 11.1865 5.51154 11.2166 5.5193 11.249C5.52752 11.2814 5.5298 11.3161 5.52752 11.3522C5.52067 11.4472 5.49191 11.5202 5.44123 11.5722C5.39056 11.6238 5.32755 11.6471 5.25177 11.6416C5.17187 11.6357 5.11435 11.5937 5.08011 11.5161H5.07691ZM5.08878 11.3545C5.08376 11.4211 5.09426 11.4764 5.11983 11.5202C5.14539 11.564 5.18694 11.5882 5.24401 11.5923C5.2819 11.5951 5.3134 11.5859 5.33897 11.5654C5.36453 11.5444 5.38417 11.5156 5.39741 11.4787C5.4111 11.4417 5.41978 11.3988 5.42343 11.3504C5.42662 11.3088 5.42434 11.27 5.41658 11.2344C5.40882 11.1988 5.39375 11.1691 5.37138 11.1454C5.34856 11.1221 5.31797 11.1089 5.2787 11.1061C5.2367 11.1029 5.20201 11.1139 5.17461 11.1385C5.14722 11.1632 5.12668 11.1956 5.11344 11.2349C5.1002 11.2737 5.09198 11.3138 5.08878 11.3545Z" fill="black"/>
<path d="M5.65064 11.3656C5.64699 11.324 5.65155 11.2857 5.66342 11.2501C5.6753 11.2145 5.69401 11.183 5.71912 11.1551C5.74423 11.1277 5.77437 11.1058 5.80861 11.0894C5.84285 11.0729 5.88165 11.0633 5.92457 11.0597C5.97798 11.0556 6.02592 11.0629 6.06884 11.083C6.11175 11.1026 6.14645 11.1332 6.17247 11.1747C6.19895 11.2163 6.21447 11.2656 6.21904 11.3231C6.22224 11.3606 6.21904 11.3971 6.209 11.4331C6.19941 11.4692 6.18297 11.5021 6.16014 11.5318C6.13732 11.5614 6.1081 11.5856 6.07249 11.6039C6.03733 11.6222 5.99625 11.6336 5.95013 11.6372C5.89946 11.6413 5.85198 11.6336 5.80815 11.6135C5.76386 11.5934 5.7278 11.5624 5.69995 11.5194C5.67164 11.4765 5.65521 11.4254 5.65064 11.3656ZM5.92594 11.0958C5.87937 11.0999 5.84285 11.1154 5.81637 11.1432C5.78943 11.1711 5.77163 11.2053 5.76249 11.2464C5.75336 11.2875 5.75062 11.3304 5.75428 11.3756C5.75793 11.4181 5.76706 11.4564 5.78258 11.4916C5.79811 11.5267 5.82002 11.5546 5.84969 11.5751C5.87891 11.5957 5.91452 11.6044 5.95653 11.6012C5.99807 11.5975 6.03094 11.5806 6.05605 11.5496C6.08071 11.5185 6.0976 11.4829 6.10673 11.4418C6.1154 11.4007 6.1186 11.3619 6.11586 11.3263C6.11358 11.2971 6.1081 11.2683 6.10034 11.2409C6.09212 11.2136 6.08071 11.1884 6.06518 11.1656C6.05012 11.1428 6.03049 11.125 6.0072 11.1122C5.98392 11.0985 5.95698 11.0935 5.92594 11.0958Z" fill="black"/>
<path d="M6.83086 11.3566L6.84319 11.4169C6.81716 11.4447 6.78886 11.4685 6.75781 11.4881C6.72677 11.5073 6.69435 11.521 6.66148 11.5283C6.60898 11.5401 6.55967 11.5388 6.51356 11.5255C6.46745 11.5118 6.42864 11.4867 6.39623 11.4488C6.36427 11.4114 6.34144 11.3639 6.32866 11.3059C6.31679 11.2521 6.31633 11.2019 6.32683 11.1548C6.33733 11.1078 6.36016 11.0676 6.3944 11.0343C6.42864 11.001 6.47338 10.9786 6.52863 10.9663C6.55967 10.9594 6.59026 10.9581 6.62085 10.9626C6.65144 10.9667 6.67974 10.9772 6.70576 10.9932C6.73179 11.0092 6.75462 11.032 6.77425 11.0612C6.79388 11.0909 6.80894 11.127 6.81808 11.1703C6.81944 11.1754 6.82036 11.1799 6.82081 11.1836C6.82127 11.1872 6.82218 11.1914 6.82264 11.1959C6.74457 11.2105 6.66696 11.227 6.5898 11.2439L6.42819 11.2795C6.42864 11.2849 6.43001 11.2932 6.4323 11.3037C6.43869 11.3329 6.44919 11.3594 6.46334 11.3831C6.47749 11.4068 6.49576 11.4274 6.51721 11.4434C6.53913 11.4593 6.56378 11.4703 6.59117 11.4758C6.61857 11.4813 6.64778 11.4803 6.67837 11.4735C6.73727 11.4607 6.78794 11.4219 6.83086 11.3566ZM6.41906 11.2365L6.72357 11.1694C6.70896 11.111 6.68705 11.0653 6.65783 11.0329C6.62861 11.0005 6.58798 10.99 6.53684 11.0014C6.50306 11.0092 6.47658 11.0247 6.4574 11.0489C6.43823 11.0726 6.4259 11.1014 6.41997 11.1347C6.41403 11.1676 6.41403 11.2019 6.41906 11.2365Z" fill="black"/>
<path d="M7.05874 11.4135L6.88525 10.8802C6.89484 10.878 6.90397 10.8757 6.91173 10.8738C6.91949 10.872 6.92634 10.8702 6.93136 10.8688C6.93593 10.8675 6.94187 10.8647 6.94917 10.862C6.95647 10.8588 6.96515 10.8551 6.97474 10.851L7.01126 10.9629L7.01217 10.9474C7.03363 10.8633 7.06878 10.8131 7.11855 10.7971C7.13316 10.7926 7.14503 10.7903 7.15461 10.7912L7.16968 10.8898C7.16603 10.8903 7.15735 10.8894 7.14366 10.8875C7.12996 10.8857 7.119 10.8862 7.11079 10.8889C7.09755 10.893 7.08522 10.8999 7.07381 10.9085C7.06239 10.9177 7.05372 10.9282 7.0487 10.94C7.03774 10.9665 7.03272 10.9903 7.03454 11.0113C7.03637 11.0323 7.04276 11.0601 7.05418 11.0948L7.14822 11.3834C7.14092 11.3852 7.13453 11.3865 7.1295 11.3875C7.12448 11.3888 7.12037 11.3897 7.11672 11.3902C7.11353 11.3907 7.1085 11.3925 7.10257 11.3943C7.09572 11.3966 7.09116 11.398 7.08933 11.3989C7.0875 11.3998 7.08339 11.4012 7.07746 11.4039C7.07107 11.4075 7.06513 11.4103 7.05874 11.4135Z" fill="black"/>
<path d="M7.46993 11.2742L7.24805 10.7592C7.25763 10.756 7.26585 10.7533 7.27361 10.7506C7.28137 10.7483 7.28777 10.746 7.29233 10.7437C7.2969 10.7414 7.30283 10.7387 7.30968 10.735C7.31653 10.7314 7.32475 10.7268 7.33433 10.7218L7.37679 10.82C7.38638 10.7332 7.42884 10.6734 7.50462 10.6405C7.56671 10.6136 7.6183 10.6118 7.65985 10.6337C7.7014 10.6556 7.73746 10.7031 7.76851 10.7757L7.90273 11.087C7.89543 11.0893 7.88949 11.0911 7.88447 11.093C7.87945 11.0948 7.87534 11.0962 7.8726 11.0971C7.8694 11.098 7.86484 11.0998 7.85845 11.1026C7.8516 11.1053 7.84703 11.1076 7.84384 11.1094C7.84064 11.1112 7.83699 11.1131 7.83242 11.1158C7.82786 11.1181 7.82238 11.1213 7.81644 11.1245L7.69272 10.8378C7.67674 10.8008 7.66031 10.7711 7.6425 10.7478C7.62515 10.7245 7.60415 10.709 7.57995 10.7017C7.55576 10.694 7.52791 10.6972 7.49595 10.7108C7.44299 10.7337 7.41423 10.7675 7.40875 10.8122C7.40373 10.8569 7.41697 10.9154 7.44801 10.9875L7.55576 11.2372C7.54845 11.2395 7.54252 11.2414 7.5375 11.2432C7.53247 11.245 7.52837 11.2464 7.52517 11.2473C7.52197 11.2482 7.51695 11.25 7.51102 11.2528C7.50417 11.2555 7.50006 11.2573 7.49823 11.2587C7.49641 11.2596 7.49275 11.2619 7.48682 11.2651C7.4818 11.2674 7.47586 11.2706 7.46993 11.2742Z" fill="black"/>
<path d="M8.27522 10.4695L8.40625 10.7078C8.41355 10.721 8.41949 10.7311 8.42405 10.737C8.42862 10.743 8.4341 10.7471 8.44003 10.7489C8.44642 10.7507 8.45373 10.7493 8.4624 10.7443C8.46971 10.7402 8.47884 10.7334 8.48979 10.7233L8.50212 10.7462C8.49345 10.758 8.48477 10.7672 8.47701 10.7735C8.46697 10.7818 8.45692 10.7886 8.44597 10.7945C8.42542 10.805 8.40579 10.8092 8.38753 10.8069C8.36927 10.8046 8.35283 10.7927 8.33822 10.7722L8.33457 10.7868C8.31539 10.8534 8.27659 10.9032 8.21815 10.9352C8.18071 10.9557 8.14191 10.9616 8.10219 10.9534C8.06247 10.9447 8.03234 10.9219 8.01225 10.8854C7.99216 10.8493 7.98531 10.8165 7.9917 10.7868C7.9981 10.7571 8.01134 10.7315 8.03234 10.7101C8.05288 10.6882 8.08256 10.6626 8.12136 10.6329C8.15058 10.6101 8.17113 10.5928 8.18254 10.5809C8.19395 10.5695 8.2008 10.5576 8.20308 10.5462C8.20537 10.5348 8.20171 10.5206 8.19258 10.5042C8.17158 10.4658 8.14465 10.4416 8.11223 10.432C8.07982 10.4225 8.04466 10.4284 8.00631 10.4494C7.98394 10.4617 7.96614 10.4768 7.95244 10.4946C7.9392 10.5124 7.93007 10.5297 7.92596 10.5462C7.9214 10.5626 7.92048 10.5768 7.92231 10.5877L7.9109 10.5941L7.87939 10.5371C7.91364 10.469 7.95838 10.4197 8.01407 10.3891C8.0684 10.359 8.11771 10.3508 8.162 10.364C8.20582 10.3764 8.24372 10.412 8.27522 10.4695ZM8.31311 10.7334L8.23048 10.5832L8.19852 10.6106C8.17797 10.627 8.15926 10.6425 8.14236 10.6571C8.12547 10.6717 8.11086 10.6873 8.09808 10.7041C8.0853 10.721 8.07753 10.7393 8.07434 10.7598C8.07114 10.7804 8.07571 10.8014 8.08803 10.8238C8.10584 10.8557 8.12775 10.8754 8.15423 10.8817C8.18071 10.8881 8.20993 10.8827 8.24235 10.8653C8.25513 10.8585 8.267 10.8466 8.27887 10.8297C8.29074 10.8128 8.2985 10.7968 8.30307 10.7813C8.30444 10.7763 8.30626 10.7708 8.30809 10.7649C8.30992 10.7589 8.31174 10.753 8.31266 10.7462C8.31402 10.7393 8.31402 10.7352 8.31311 10.7334Z" fill="black"/>
<path d="M3.61264 2.10092C3.61264 2.10092 3.47156 1.03809 2.97119 0.793836C2.97119 0.793836 5.59039 -0.978012 8.29906 0.793836C8.29906 0.793836 7.58411 1.45537 7.61425 2.01053L3.61264 2.10092Z" fill="url(#paint23_linear_10036_48644)" stroke="#A3822E" stroke-width="0.3" stroke-miterlimit="10"/>
<path d="M4.34 1.42062L4.15967 0.518486L4.41899 0.46644C4.48518 0.453201 4.54134 0.448179 4.58699 0.450918C4.63265 0.454114 4.66917 0.466897 4.69656 0.489268C4.72396 0.511638 4.74222 0.545423 4.75089 0.590164C4.75683 0.620296 4.75728 0.649058 4.75181 0.676451C4.74633 0.703843 4.73628 0.72941 4.72122 0.753607C4.70615 0.777804 4.68743 0.798805 4.66506 0.817523C4.64269 0.835785 4.61667 0.85222 4.58791 0.866373C4.61576 0.862264 4.64497 0.861351 4.67511 0.863634C4.70524 0.865917 4.734 0.872765 4.76048 0.883722C4.78742 0.894679 4.81116 0.912028 4.83124 0.935311C4.85133 0.958595 4.86503 0.988727 4.87279 1.02571C4.89151 1.11976 4.86685 1.20239 4.79837 1.27315C4.77829 1.29324 4.75363 1.31059 4.72396 1.32474C4.69474 1.33935 4.66506 1.35031 4.63584 1.35807C4.60617 1.36583 4.57101 1.37359 4.52901 1.38227L4.34 1.42062ZM4.28567 0.544509L4.35553 0.894222L4.40985 0.883265C4.44455 0.876417 4.47468 0.868199 4.49934 0.859525C4.52399 0.850851 4.54819 0.838524 4.57056 0.822088C4.59978 0.800174 4.62032 0.773695 4.63265 0.74265C4.64452 0.711605 4.64726 0.67782 4.63995 0.641753C4.63173 0.601578 4.61667 0.571446 4.5943 0.550901C4.57193 0.530357 4.54317 0.518486 4.50847 0.515291C4.47377 0.512095 4.43177 0.515291 4.38292 0.525335L4.28567 0.544509ZM4.36557 0.943529L4.44638 1.34848L4.57193 1.32337C4.61576 1.3147 4.65228 1.29826 4.68241 1.27407C4.71254 1.24987 4.734 1.22019 4.74633 1.18504C4.75865 1.14989 4.76094 1.11291 4.75318 1.0741C4.73857 1.0006 4.70433 0.95403 4.65091 0.933485C4.59704 0.913397 4.52627 0.911571 4.43862 0.929376L4.36557 0.943529Z" fill="black"/>
<path d="M5.52747 0.842039L5.54436 1.15477C5.54527 1.17258 5.54664 1.18536 5.54801 1.19403C5.54938 1.20271 5.55304 1.2091 5.55851 1.21412C5.56399 1.21914 5.57267 1.22143 5.58408 1.22051C5.59367 1.22006 5.60691 1.21732 5.62334 1.2123L5.62471 1.24197C5.60965 1.24973 5.59641 1.25521 5.58454 1.25795C5.57038 1.26115 5.55578 1.26343 5.54208 1.26434C5.51514 1.2648 5.49323 1.25932 5.47542 1.24791C5.45807 1.23649 5.44666 1.21595 5.44164 1.18719L5.43023 1.20043C5.37681 1.25978 5.31152 1.29173 5.23528 1.29584C5.18597 1.29858 5.14306 1.28534 5.10608 1.25658C5.0691 1.22782 5.04947 1.18901 5.04673 1.14062C5.04445 1.09314 5.05358 1.0557 5.07458 1.02831C5.09558 1.00092 5.12252 0.980828 5.15493 0.968958C5.18734 0.957088 5.23072 0.944761 5.2855 0.933347C5.32705 0.924217 5.35718 0.916455 5.37498 0.910064C5.39279 0.903672 5.40557 0.894998 5.41333 0.884041C5.42155 0.873084 5.42475 0.856648 5.42383 0.83519C5.42109 0.784514 5.40512 0.746621 5.37635 0.720598C5.34759 0.694575 5.30787 0.683161 5.25811 0.6859C5.22843 0.68727 5.20241 0.694118 5.18004 0.705988C5.15721 0.717859 5.13941 0.731098 5.12662 0.746164C5.11384 0.76123 5.10562 0.774927 5.10243 0.787253L5.08736 0.788166L5.08325 0.713293C5.1531 0.659877 5.22432 0.631115 5.29646 0.627463C5.36768 0.62381 5.42338 0.639789 5.46218 0.6754C5.5019 0.710554 5.52336 0.766252 5.52747 0.842039ZM5.43479 1.13468L5.42429 0.937913L5.37727 0.950239C5.34759 0.957088 5.32066 0.963936 5.296 0.970784C5.27135 0.977632 5.24806 0.986307 5.22661 0.997264C5.20515 1.00822 5.1878 1.02329 5.1741 1.04292C5.16086 1.06255 5.15447 1.08675 5.1563 1.11597C5.15858 1.15797 5.17182 1.18901 5.19602 1.2091C5.22022 1.22919 5.25354 1.23832 5.29555 1.23604C5.31244 1.23512 5.3307 1.22873 5.35124 1.21732C5.37179 1.2059 5.38822 1.19312 5.40101 1.17897C5.40512 1.1744 5.40968 1.16938 5.4147 1.16436C5.41973 1.15934 5.42429 1.15386 5.4284 1.14747C5.43297 1.14107 5.43479 1.13697 5.43479 1.13468Z" fill="black"/>
<path d="M5.74072 1.26681L5.79186 0.623535C5.80327 0.625361 5.81331 0.627187 5.82244 0.628557C5.83157 0.629927 5.83934 0.631296 5.84527 0.631753C5.85075 0.63221 5.85851 0.632209 5.86719 0.632209C5.87632 0.632209 5.88682 0.632209 5.89914 0.632209L5.8891 0.75502C5.94571 0.671929 6.02104 0.634036 6.116 0.64134C6.19361 0.647732 6.24749 0.672842 6.27762 0.71804C6.30775 0.762781 6.31916 0.83035 6.31186 0.920745L6.28081 1.30972C6.27214 1.30835 6.26484 1.30698 6.2589 1.30607C6.25297 1.30516 6.2484 1.30424 6.24475 1.30379C6.2411 1.30333 6.23516 1.30242 6.2274 1.30196C6.21918 1.3015 6.21279 1.30105 6.20914 1.30105C6.20548 1.30105 6.20001 1.30105 6.19407 1.30105C6.18814 1.30105 6.18129 1.30105 6.17307 1.3015L6.20183 0.943573C6.20548 0.897462 6.20457 0.858199 6.19955 0.824871C6.19407 0.792 6.18129 0.765064 6.16074 0.744063C6.1402 0.723062 6.11007 0.711192 6.0708 0.707996C6.00461 0.702517 5.95712 0.721236 5.92791 0.764151C5.89869 0.806609 5.88043 0.873265 5.87312 0.963661L5.84847 1.27594C5.83979 1.27457 5.83249 1.2732 5.82655 1.27228C5.82062 1.27137 5.81605 1.27046 5.81194 1.27C5.80783 1.26955 5.80236 1.26863 5.79505 1.26818C5.78683 1.26772 5.78136 1.26726 5.77907 1.26726C5.77679 1.26726 5.77177 1.26726 5.76401 1.26726C5.75625 1.26635 5.74848 1.26681 5.74072 1.26681Z" fill="black"/>
<path d="M6.77759 0.370388L6.65021 0.96207C6.64656 0.979875 6.64428 0.990832 6.64428 0.995854C6.64428 1.00088 6.64519 1.00453 6.64747 1.00681C6.67213 1.01183 6.71596 0.994484 6.77896 0.953395L6.87849 0.888109L7.00586 0.7968C7.01682 0.799996 7.02686 0.803192 7.03554 0.805931C7.04421 0.808671 7.05197 0.810953 7.05791 0.811867C7.06247 0.81278 7.06932 0.813693 7.07845 0.815062C7.08758 0.815975 7.09808 0.817345 7.11041 0.819171L7.10813 0.828759C7.09169 0.838346 7.07754 0.846107 7.06476 0.852499C7.05243 0.858891 7.02412 0.8735 6.98029 0.896784C6.93647 0.920067 6.89309 0.944264 6.85109 0.968461C6.80863 0.992658 6.77941 1.01001 6.76252 1.02051C6.77302 1.03968 6.78763 1.06571 6.80589 1.09949C6.82416 1.13327 6.84516 1.17254 6.86935 1.21728C6.89355 1.26202 6.91592 1.30265 6.93601 1.33963C6.9561 1.37616 6.97573 1.41222 6.9949 1.44738L6.99353 1.45377C6.98258 1.45057 6.9739 1.44783 6.96706 1.44601C6.96066 1.44418 6.95518 1.44235 6.95016 1.44098C6.9456 1.43961 6.93875 1.43779 6.92962 1.43596C6.91957 1.43368 6.91273 1.43231 6.90953 1.43185C6.90633 1.4314 6.9004 1.43048 6.89127 1.42911C6.88214 1.42774 6.87255 1.42637 6.86296 1.42546C6.84881 1.39487 6.82507 1.34876 6.79129 1.28667C6.7575 1.22458 6.71869 1.15382 6.67441 1.07392C6.66482 1.05749 6.65615 1.04836 6.64839 1.04653C6.63743 1.04425 6.6283 1.05886 6.62099 1.09127L6.56301 1.36063C6.55434 1.35789 6.54749 1.35561 6.54201 1.35424C6.53653 1.35241 6.53151 1.35105 6.52786 1.34968C6.52421 1.34831 6.51827 1.34694 6.51142 1.34557C6.50321 1.34374 6.49818 1.34283 6.49544 1.34237C6.49316 1.34191 6.48814 1.34146 6.48084 1.34054C6.47353 1.33963 6.46577 1.33872 6.45801 1.33781L6.67167 0.346191C6.68263 0.349387 6.69267 0.352583 6.70135 0.355322C6.71002 0.358062 6.71778 0.360344 6.72372 0.361257C6.7292 0.362627 6.7365 0.36354 6.74563 0.364453C6.75476 0.367192 6.76572 0.369019 6.77759 0.370388Z" fill="black"/>
<path d="M5.63544 10.5639C8.12056 10.5639 10.1351 8.54927 10.1351 6.06415C10.1351 3.57904 8.12056 1.56445 5.63544 1.56445C3.15033 1.56445 1.13574 3.57904 1.13574 6.06415C1.13574 8.54927 3.15033 10.5639 5.63544 10.5639Z" fill="url(#paint24_linear_10036_48644)" stroke="#A3822E" stroke-width="0.3" stroke-miterlimit="10"/>
<path d="M5.70279 9.40118C7.62184 9.40118 9.17754 7.84547 9.17754 5.92642C9.17754 4.00736 7.62184 2.45166 5.70279 2.45166C3.78373 2.45166 2.22803 4.00736 2.22803 5.92642C2.22803 7.84547 3.78373 9.40118 5.70279 9.40118Z" fill="white"/>
<path d="M5.70257 9.51695C3.72254 9.51695 2.1123 7.90626 2.1123 5.92669C2.1123 3.94711 3.72299 2.33643 5.70257 2.33643C7.68214 2.33643 9.29283 3.94711 9.29283 5.92669C9.29283 7.90626 7.68214 9.51695 5.70257 9.51695ZM5.70257 2.56698C3.85037 2.56698 2.34332 4.07403 2.34332 5.92623C2.34332 7.77843 3.85037 9.28548 5.70257 9.28548C7.55477 9.28548 9.06182 7.77843 9.06182 5.92623C9.06182 4.07403 7.55477 2.56698 5.70257 2.56698Z" fill="black"/>
<path d="M5.70189 2.84521C4.00126 2.84521 2.62158 4.22489 2.62158 5.92689C2.62158 7.62889 4.00126 9.00856 5.70189 9.00856C7.40388 9.00856 8.78356 7.62889 8.78356 5.92689C8.7831 4.22444 7.40388 2.84521 5.70189 2.84521ZM5.59597 7.78365H5.67495C5.64756 7.81652 5.62975 7.83433 5.62975 7.83433C5.61788 7.81744 5.60738 7.80055 5.59597 7.78365Z" fill="#FF0000"/>
<path d="M7.94832 4.45911C6.42666 3.92633 5.63729 4.87639 5.63729 4.87639C4.41147 3.8688 3.23633 4.60703 3.23633 4.60703C3.57737 6.17983 4.77762 6.34692 4.77762 6.34692C4.40462 7.5659 5.63729 8.56755 5.63729 8.56755C6.6773 7.97724 6.6321 6.30172 6.6321 6.30172C7.83966 5.85842 7.94832 4.45911 7.94832 4.45911ZM5.60123 5.56715C5.68432 5.45392 5.94774 5.99356 5.89707 6.04423C5.84639 6.09628 5.40583 6.11819 5.36793 6.01547C5.32867 5.91366 5.60123 5.56715 5.60123 5.56715ZM4.91139 5.86527C4.10239 5.65389 3.88416 4.92479 3.88416 4.92479C4.80638 4.78737 5.29945 5.24254 5.29945 5.24254C4.91139 5.47355 4.91139 5.86527 4.91139 5.86527ZM5.60351 7.77271C5.17253 7.18331 5.22001 6.44873 5.22001 6.44873C5.57931 6.55145 6.03677 6.44873 6.03677 6.44873C6.13767 7.23764 5.60351 7.77271 5.60351 7.77271ZM6.44264 5.86527C6.35042 5.56349 5.98381 5.21378 5.98381 5.21378C6.59375 4.70291 7.33244 4.86361 7.33244 4.86361C7.06902 5.54386 6.44264 5.86527 6.44264 5.86527Z" fill="white" stroke="black" stroke-width="0.2" stroke-miterlimit="10"/>
<path d="M4.29616 9.9481L4.3021 9.95084C4.30484 9.97047 4.31168 9.98919 4.32219 10.0065C4.33314 10.0239 4.34638 10.0358 4.36282 10.0431C4.37469 10.0485 4.38793 10.0508 4.40117 10.0499C4.41486 10.049 4.42765 10.0449 4.43906 10.0376C4.45047 10.0303 4.45915 10.0207 4.46463 10.0079C4.47421 9.986 4.47421 9.96773 4.46463 9.95358C4.45458 9.93943 4.43678 9.92117 4.41075 9.89925C4.38473 9.87734 4.36693 9.85725 4.3578 9.83853C4.34866 9.81981 4.35049 9.79607 4.36282 9.76731C4.37788 9.73353 4.40117 9.71161 4.43221 9.70248C4.46326 9.69335 4.49658 9.69609 4.53128 9.71161C4.54817 9.71892 4.56324 9.72851 4.57739 9.73946C4.59155 9.75042 4.60113 9.76001 4.60616 9.76777C4.59246 9.7801 4.57876 9.7947 4.56507 9.81205L4.55867 9.80931C4.55913 9.80018 4.55776 9.79014 4.55457 9.77918C4.55137 9.76868 4.5468 9.75909 4.54087 9.75088C4.53493 9.74266 4.52717 9.73672 4.51804 9.73261C4.49887 9.7244 4.48061 9.72257 4.46326 9.72759C4.44591 9.73261 4.43267 9.74494 4.42445 9.76412C4.41532 9.78466 4.41532 9.80247 4.42491 9.81707C4.4345 9.83123 4.45184 9.84995 4.47695 9.87232C4.50206 9.89469 4.51941 9.91523 4.52946 9.93441C4.53904 9.95358 4.53813 9.97641 4.52672 10.0029C4.51576 10.0275 4.49978 10.0458 4.47878 10.0577C4.45778 10.0695 4.43495 10.0755 4.40984 10.0746C4.38519 10.0741 4.36145 10.0691 4.33953 10.059C4.30484 10.0435 4.27744 10.0225 4.25781 9.99513C4.2779 9.97184 4.29114 9.95632 4.29616 9.9481Z" fill="black"/>
<path d="M4.93776 9.98815L4.888 10.1676C4.88526 10.1776 4.88343 10.1854 4.88252 10.1904C4.8816 10.1954 4.88252 10.2 4.8848 10.2036C4.88708 10.2073 4.89119 10.2105 4.89804 10.2123C4.90352 10.2137 4.91128 10.2146 4.92178 10.2151L4.91722 10.2319C4.90717 10.2333 4.89895 10.2338 4.89165 10.2333C4.88297 10.2324 4.87476 10.231 4.86654 10.2288C4.85147 10.2242 4.8396 10.2164 4.8323 10.2068C4.82454 10.1968 4.8218 10.1836 4.82454 10.1662L4.81586 10.1717C4.77432 10.195 4.73186 10.2009 4.68757 10.1886C4.65927 10.1808 4.63735 10.1653 4.62229 10.142C4.60677 10.1187 4.60311 10.0932 4.61087 10.0658C4.61864 10.0384 4.63051 10.0192 4.64785 10.0078C4.6652 9.99637 4.68392 9.98998 4.70447 9.98952C4.72501 9.98907 4.75195 9.99044 4.78482 9.99409C4.81038 9.99683 4.82819 9.9982 4.8396 9.99774C4.85102 9.99774 4.85969 9.995 4.86608 9.99044C4.87293 9.98587 4.8775 9.9772 4.88115 9.96487C4.88937 9.93611 4.88754 9.91145 4.87613 9.89137C4.86471 9.87128 4.84462 9.85713 4.81586 9.84936C4.79897 9.8448 4.78299 9.84343 4.76793 9.84571C4.75286 9.848 4.74008 9.8521 4.73049 9.8585C4.72044 9.86443 4.71314 9.87082 4.70903 9.87721L4.70036 9.87493L4.71223 9.83202C4.76153 9.81512 4.80719 9.81238 4.84873 9.8238C4.88982 9.83521 4.91813 9.85484 4.93319 9.88224C4.94826 9.90963 4.94963 9.94478 4.93776 9.98815ZM4.83002 10.1361L4.86152 10.0229L4.83275 10.021C4.81449 10.0192 4.79806 10.0183 4.78299 10.0174C4.76793 10.0165 4.75286 10.0174 4.73916 10.0192C4.72501 10.0215 4.71223 10.0265 4.70081 10.0352C4.6894 10.0439 4.68164 10.0562 4.67662 10.0731C4.66977 10.0973 4.67159 10.1174 4.68118 10.1333C4.69123 10.1493 4.70812 10.1607 4.73231 10.1671C4.7419 10.1699 4.75332 10.1699 4.76747 10.1671C4.78117 10.1644 4.79304 10.1603 4.80262 10.1548C4.80582 10.153 4.80947 10.1511 4.81312 10.1493C4.81678 10.1475 4.82088 10.1452 4.82408 10.1425C4.82773 10.1393 4.82956 10.137 4.83002 10.1361Z" fill="black"/>
<path d="M5.04736 10.2699L5.12087 9.6709C5.12772 9.67227 5.13365 9.67364 5.13913 9.67455C5.14461 9.67592 5.14917 9.67683 5.15282 9.67683C5.15648 9.67729 5.16059 9.67729 5.16606 9.67775C5.17154 9.67775 5.17793 9.6782 5.18524 9.67866L5.14963 9.96902C5.18524 9.92108 5.23135 9.90054 5.28751 9.90739C5.3327 9.91287 5.3642 9.92976 5.3811 9.95806C5.39799 9.98637 5.40347 10.0265 5.39708 10.0786L5.36877 10.3091C5.36375 10.3078 5.35964 10.3069 5.35599 10.3064C5.35233 10.3055 5.3496 10.305 5.34777 10.3046C5.34549 10.3041 5.34229 10.3037 5.33727 10.3028C5.33225 10.3023 5.32859 10.3018 5.32631 10.3018C5.32403 10.3018 5.32083 10.3018 5.31764 10.3014C5.31398 10.3014 5.30988 10.3009 5.30531 10.3009L5.33133 10.0886C5.33681 10.0425 5.33453 10.0078 5.32403 9.98546C5.31353 9.96263 5.29207 9.94939 5.2592 9.94528C5.18935 9.93661 5.14963 9.97496 5.13913 10.0603L5.11265 10.2772C5.10763 10.2758 5.10352 10.2749 5.09987 10.2744C5.09621 10.274 5.09347 10.2731 5.09119 10.2726C5.08891 10.2722 5.08571 10.2717 5.08115 10.2708C5.07613 10.2703 5.07293 10.2699 5.07156 10.2699C5.07019 10.2699 5.06699 10.2699 5.06289 10.2694C5.05695 10.2703 5.05193 10.2699 5.04736 10.2699Z" fill="black"/>
<path d="M5.80442 10.0586L5.80716 10.2449C5.80716 10.2554 5.80761 10.2631 5.80853 10.2681C5.80898 10.2732 5.81127 10.2773 5.81446 10.2805C5.81766 10.2837 5.82268 10.285 5.82953 10.285C5.83546 10.285 5.84322 10.2837 5.85281 10.2814L5.85327 10.2992C5.84414 10.3033 5.83592 10.3065 5.82907 10.3079C5.8204 10.3097 5.81172 10.3106 5.8035 10.3106C5.78753 10.3101 5.77474 10.3065 5.76424 10.2992C5.7542 10.2919 5.74781 10.2796 5.74552 10.2622L5.73868 10.27C5.70535 10.3042 5.66609 10.3216 5.62043 10.322C5.59121 10.3225 5.56565 10.3138 5.54464 10.2955C5.52319 10.2777 5.51223 10.254 5.51223 10.2252C5.51177 10.1969 5.51816 10.175 5.5314 10.159C5.54464 10.143 5.56108 10.1321 5.58071 10.1252C5.60034 10.1189 5.62637 10.1129 5.65924 10.107C5.68435 10.1024 5.70215 10.0988 5.71265 10.0951C5.72315 10.0919 5.73137 10.0869 5.73639 10.0805C5.74141 10.0741 5.7437 10.0645 5.7437 10.0517C5.74324 10.0216 5.73457 9.99878 5.71813 9.98234C5.7017 9.96591 5.67841 9.9586 5.64828 9.95906C5.63093 9.95906 5.61541 9.96271 5.60126 9.9691C5.58756 9.9755 5.5766 9.98326 5.56884 9.99193C5.56062 10.0006 5.5556 10.0084 5.55332 10.0157H5.54419L5.54373 9.97093C5.58665 9.9408 5.62956 9.92528 5.67248 9.92482C5.71494 9.92436 5.74781 9.93486 5.77018 9.95723C5.79209 9.98006 5.8035 10.0134 5.80442 10.0586ZM5.74233 10.2307L5.7405 10.1134L5.7122 10.1198C5.69439 10.1234 5.67796 10.1266 5.66335 10.1303C5.64828 10.1335 5.63458 10.1385 5.62134 10.1444C5.60856 10.1504 5.5976 10.159 5.58893 10.1704C5.58071 10.1819 5.5766 10.196 5.5766 10.2134C5.57706 10.2385 5.58436 10.2572 5.59806 10.2695C5.61221 10.2818 5.63139 10.2882 5.6565 10.2878C5.66654 10.2878 5.6775 10.2841 5.69028 10.2777C5.70261 10.2713 5.71265 10.264 5.72041 10.2563C5.72315 10.2535 5.72589 10.2508 5.72909 10.2481C5.73228 10.2453 5.73502 10.2421 5.73776 10.2385C5.74096 10.2344 5.74233 10.2316 5.74233 10.2307Z" fill="black"/>
<path d="M5.97075 10.2998L5.88721 9.70444C5.89406 9.70399 5.89999 9.70353 5.90547 9.70353C5.91095 9.70307 5.91551 9.70307 5.91916 9.70216C5.92236 9.7017 5.92693 9.70079 5.93195 9.69942C5.93743 9.69805 5.94336 9.69668 5.95067 9.69531L5.99221 9.98978C6.00591 9.96148 6.02326 9.93865 6.04335 9.92085C6.06389 9.90304 6.089 9.89254 6.11822 9.88843C6.15383 9.88341 6.18487 9.88797 6.21181 9.90258C6.23829 9.91674 6.25975 9.93728 6.27527 9.96422C6.29079 9.99115 6.30084 10.0195 6.30494 10.0505C6.3086 10.0774 6.3086 10.1039 6.30403 10.1299C6.29947 10.1555 6.29079 10.1792 6.27801 10.2007C6.26523 10.2222 6.24833 10.2404 6.22779 10.255C6.20679 10.2696 6.18259 10.2788 6.15428 10.2829C6.10452 10.2897 6.06389 10.2765 6.0333 10.2423C6.02782 10.2477 6.02097 10.255 6.01321 10.2646C6.00545 10.2742 5.99632 10.2852 5.98582 10.2975L5.97075 10.2998ZM6.1027 9.92495C6.06069 9.93089 6.03284 9.9528 6.01915 9.99115C6.00545 10.0295 6.00226 10.0752 6.01002 10.1286C6.01413 10.1564 6.02189 10.1811 6.03421 10.2021C6.04608 10.2231 6.06161 10.2386 6.08033 10.2486C6.09904 10.2587 6.11959 10.2619 6.14242 10.2587C6.16387 10.2555 6.18122 10.2477 6.19492 10.2345C6.20861 10.2213 6.21911 10.2048 6.22596 10.1852C6.23281 10.1656 6.23692 10.1459 6.23829 10.1254C6.23966 10.1053 6.23875 10.0843 6.23555 10.0637C6.23144 10.0336 6.22368 10.0076 6.21272 9.98567C6.20177 9.96376 6.18716 9.94732 6.16889 9.93637C6.15018 9.92541 6.12826 9.92176 6.1027 9.92495Z" fill="black"/>
<path d="M6.65674 9.90877L6.70331 10.0891C6.70605 10.0991 6.70833 10.1069 6.71015 10.1115C6.71198 10.116 6.71472 10.1197 6.71883 10.122C6.72248 10.1243 6.72796 10.1243 6.73435 10.1229C6.73983 10.1215 6.74713 10.1183 6.75627 10.1133L6.76083 10.1302C6.75307 10.1366 6.74577 10.1411 6.73937 10.1443C6.73161 10.148 6.72339 10.1512 6.71518 10.153C6.69965 10.1567 6.68596 10.1562 6.67454 10.1512C6.66267 10.1466 6.654 10.1361 6.64761 10.1197L6.64259 10.1288C6.61839 10.1699 6.58415 10.1964 6.54032 10.2078C6.51201 10.2151 6.48553 10.2128 6.46042 10.2C6.43531 10.1877 6.41934 10.1676 6.41203 10.1398C6.40518 10.1124 6.4061 10.0896 6.41523 10.0708C6.42436 10.0521 6.4376 10.0375 6.45495 10.0266C6.4723 10.0156 6.49649 10.0037 6.52708 9.99003C6.55036 9.97953 6.5668 9.97177 6.57639 9.96584C6.58597 9.96036 6.59237 9.95351 6.59602 9.9462C6.59921 9.9389 6.59921 9.92886 6.59602 9.91653C6.58826 9.88731 6.57456 9.86677 6.55493 9.85535C6.53484 9.84348 6.51064 9.84166 6.48188 9.84896C6.46499 9.85353 6.45038 9.86037 6.43851 9.86996C6.42664 9.87955 6.41797 9.88959 6.41203 9.89964C6.40655 9.91014 6.40336 9.91881 6.4029 9.92657L6.39423 9.92886L6.38281 9.88548C6.41705 9.84622 6.4554 9.82111 6.49695 9.81015C6.53804 9.7992 6.57228 9.80239 6.59967 9.81837C6.62615 9.83527 6.64533 9.86494 6.65674 9.90877ZM6.63756 10.0905L6.60789 9.97679L6.58187 9.98958C6.56543 9.99688 6.55036 10.0042 6.53667 10.011C6.52297 10.0179 6.51065 10.0256 6.49923 10.0348C6.48782 10.0434 6.4796 10.0544 6.47412 10.0676C6.46864 10.0809 6.46773 10.0955 6.47229 10.1124C6.47869 10.1366 6.4901 10.153 6.50654 10.1622C6.52297 10.1708 6.54352 10.1722 6.56771 10.1658C6.5773 10.1631 6.58734 10.1576 6.59784 10.148C6.60834 10.1389 6.61656 10.1293 6.62204 10.1197C6.62387 10.1165 6.62615 10.1133 6.62843 10.1096C6.63072 10.106 6.633 10.1023 6.63483 10.0982C6.63711 10.0941 6.63756 10.0914 6.63756 10.0905Z" fill="black"/>
<path d="M6.71537 9.66928L6.76833 9.625L6.80211 9.72361L6.88246 9.69622C6.88383 9.70398 6.8852 9.70946 6.88612 9.7122C6.88749 9.71631 6.88977 9.72087 6.89251 9.72544L6.81216 9.75283L6.87744 9.94367L6.88703 9.97106C6.89707 10.0003 6.90849 10.0222 6.92218 10.0368C6.93542 10.0519 6.95368 10.0551 6.97651 10.0473C6.98153 10.0455 6.99203 10.04 7.00893 10.0304L7.01532 10.0487C6.9934 10.0665 6.97332 10.0783 6.95597 10.0843C6.94181 10.0893 6.92903 10.0916 6.91716 10.0916C6.90529 10.0916 6.89388 10.0884 6.88338 10.0815C6.87288 10.0752 6.86283 10.0647 6.85325 10.05C6.84411 10.0354 6.83544 10.0172 6.82768 9.99434L6.75189 9.77292L6.70487 9.7889C6.70487 9.78525 6.70395 9.77977 6.70167 9.77383C6.69939 9.76698 6.69711 9.76242 6.69482 9.76014L6.74185 9.74416L6.71537 9.66928Z" fill="black"/>
<path d="M9.06152 9.62509C9.1049 9.63605 9.45233 9.5767 9.95042 9.31738C10.1079 9.23566 10.28 9.13385 10.4627 9.0083" stroke="#A3822E" stroke-width="0.1" stroke-miterlimit="10"/>
<path d="M9.92773 8.49694C9.92773 8.49694 10.5952 8.07327 10.8842 7.54688" stroke="#A3822E" stroke-width="0.1" stroke-miterlimit="10"/>
<path d="M10.1606 7.30303C10.1606 7.30303 10.8464 6.8789 11.1765 6.06396" stroke="#A3822E" stroke-width="0.1" stroke-miterlimit="10"/>
<path d="M10.2681 5.92617C10.2681 5.92617 10.7493 5.50569 10.8839 4.63232" stroke="#A3822E" stroke-width="0.1" stroke-miterlimit="10"/>
<path d="M9.75635 3.69053L10.0558 2.61035" stroke="#A3822E" stroke-width="0.1" stroke-miterlimit="10"/>
</g>
<defs>
<linearGradient id="paint0_linear_10036_48644" x1="1.04463" y1="3.88512" x2="0.248659" y2="4.83517" gradientUnits="userSpaceOnUse">
<stop stop-color="#F7E349"/>
<stop offset="1" stop-color="#A3822E"/>
</linearGradient>
<linearGradient id="paint1_linear_10036_48644" x1="10.2426" y1="3.88512" x2="11.0386" y2="4.83517" gradientUnits="userSpaceOnUse">
<stop stop-color="#F7E349"/>
<stop offset="1" stop-color="#A3822E"/>
</linearGradient>
<linearGradient id="paint2_linear_10036_48644" x1="2.0865" y1="2.51993" x2="1.13646" y2="2.58413" gradientUnits="userSpaceOnUse">
<stop stop-color="#F7E349"/>
<stop offset="1" stop-color="#A3822E"/>
</linearGradient>
<linearGradient id="paint3_linear_10036_48644" x1="3.25541" y1="1.69845" x2="2.60066" y2="3.08499" gradientUnits="userSpaceOnUse">
<stop stop-color="#F7E349"/>
<stop offset="1" stop-color="#A3822E"/>
</linearGradient>
<linearGradient id="paint4_linear_10036_48644" x1="3.93992" y1="2.16687" x2="1.86011" y2="2.16687" gradientUnits="userSpaceOnUse">
<stop stop-color="#F7E349"/>
<stop offset="1" stop-color="#A3822E"/>
</linearGradient>
<linearGradient id="paint5_linear_10036_48644" x1="1.01712" y1="9.82647" x2="2.76314" y2="10.0961" gradientUnits="userSpaceOnUse">
<stop stop-color="#F7E349"/>
<stop offset="1" stop-color="#A3822E"/>
</linearGradient>
<linearGradient id="paint6_linear_10036_48644" x1="1.75599" y1="8.84961" x2="1.4222" y2="10.3389" gradientUnits="userSpaceOnUse">
<stop stop-color="#F7E349"/>
<stop offset="1" stop-color="#A3822E"/>
</linearGradient>
<linearGradient id="paint7_linear_10036_48644" x1="1.09867" y1="7.82829" x2="0.546612" y2="8.77833" gradientUnits="userSpaceOnUse">
<stop stop-color="#F7E349"/>
<stop offset="1" stop-color="#A3822E"/>
</linearGradient>
<linearGradient id="paint8_linear_10036_48644" x1="1.67143" y1="8.27407" x2="3.18635" y2="9.84035" gradientUnits="userSpaceOnUse">
<stop stop-color="#F7E349"/>
<stop offset="1" stop-color="#A3822E"/>
</linearGradient>
<linearGradient id="paint9_linear_10036_48644" x1="0.953768" y1="6.47778" x2="0.157788" y2="8.27515" gradientUnits="userSpaceOnUse">
<stop stop-color="#F7E349"/>
<stop offset="1" stop-color="#A3822E"/>
</linearGradient>
<linearGradient id="paint10_linear_10036_48644" x1="1.03382" y1="5.07742" x2="-0.160151" y2="6.54099" gradientUnits="userSpaceOnUse">
<stop stop-color="#F7E349"/>
<stop offset="1" stop-color="#A3822E"/>
</linearGradient>
<linearGradient id="paint11_linear_10036_48644" x1="1.71875" y1="3.1902" x2="0.627495" y2="3.34426" gradientUnits="userSpaceOnUse">
<stop stop-color="#F7E349"/>
<stop offset="1" stop-color="#A3822E"/>
</linearGradient>
<linearGradient id="paint12_linear_10036_48644" x1="9.20096" y1="2.51993" x2="10.151" y2="2.58413" gradientUnits="userSpaceOnUse">
<stop stop-color="#F7E349"/>
<stop offset="1" stop-color="#A3822E"/>
</linearGradient>
<linearGradient id="paint13_linear_10036_48644" x1="8.03171" y1="1.69845" x2="8.68647" y2="3.08499" gradientUnits="userSpaceOnUse">
<stop stop-color="#F7E349"/>
<stop offset="1" stop-color="#A3822E"/>
</linearGradient>
<linearGradient id="paint14_linear_10036_48644" x1="7.3472" y1="2.16687" x2="9.42702" y2="2.16687" gradientUnits="userSpaceOnUse">
<stop stop-color="#F7E349"/>
<stop offset="1" stop-color="#A3822E"/>
</linearGradient>
<linearGradient id="paint15_linear_10036_48644" x1="10.2702" y1="9.82647" x2="8.52416" y2="10.0961" gradientUnits="userSpaceOnUse">
<stop stop-color="#F7E349"/>
<stop offset="1" stop-color="#A3822E"/>
</linearGradient>
<linearGradient id="paint16_linear_10036_48644" x1="9.53151" y1="8.84961" x2="9.8653" y2="10.3389" gradientUnits="userSpaceOnUse">
<stop stop-color="#F7E349"/>
<stop offset="1" stop-color="#A3822E"/>
</linearGradient>
<linearGradient id="paint17_linear_10036_48644" x1="10.1887" y1="7.82832" x2="10.7407" y2="8.77836" gradientUnits="userSpaceOnUse">
<stop stop-color="#F7E349"/>
<stop offset="1" stop-color="#A3822E"/>
</linearGradient>
<linearGradient id="paint18_linear_10036_48644" x1="9.61563" y1="8.27407" x2="8.10071" y2="9.84035" gradientUnits="userSpaceOnUse">
<stop stop-color="#F7E349"/>
<stop offset="1" stop-color="#A3822E"/>
</linearGradient>
<linearGradient id="paint19_linear_10036_48644" x1="10.3337" y1="6.47778" x2="11.1296" y2="8.27515" gradientUnits="userSpaceOnUse">
<stop stop-color="#F7E349"/>
<stop offset="1" stop-color="#A3822E"/>
</linearGradient>
<linearGradient id="paint20_linear_10036_48644" x1="10.2534" y1="5.07742" x2="11.4474" y2="6.54099" gradientUnits="userSpaceOnUse">
<stop stop-color="#F7E349"/>
<stop offset="1" stop-color="#A3822E"/>
</linearGradient>
<linearGradient id="paint21_linear_10036_48644" x1="9.56839" y1="3.1902" x2="10.6596" y2="3.34426" gradientUnits="userSpaceOnUse">
<stop stop-color="#F7E349"/>
<stop offset="1" stop-color="#A3822E"/>
</linearGradient>
<linearGradient id="paint22_linear_10036_48644" x1="5.63536" y1="9.28601" x2="5.63536" y2="12.015" gradientUnits="userSpaceOnUse">
<stop stop-color="#F7E349"/>
<stop offset="1" stop-color="#A3822E"/>
</linearGradient>
<linearGradient id="paint23_linear_10036_48644" x1="5.63505" y1="2.10104" x2="5.63505" y2="0.00675335" gradientUnits="userSpaceOnUse">
<stop stop-color="#F7E349"/>
<stop offset="1" stop-color="#A3822E"/>
</linearGradient>
<linearGradient id="paint24_linear_10036_48644" x1="5.63537" y1="1.56425" x2="5.63537" y2="10.5639" gradientUnits="userSpaceOnUse">
<stop stop-color="#F7E349"/>
<stop offset="1" stop-color="#A3822E"/>
</linearGradient>
<clipPath id="clip0_10036_48644">
<rect width="38" height="12.0217" fill="white"/>
</clipPath>
</defs>
</svg>
