<svg width="118" height="26" viewBox="0 0 118 26" fill="none" xmlns="http://www.w3.org/2000/svg">
<path d="M12.8 25.6C19.8692 25.6 25.6 19.8692 25.6 12.8C25.6 5.73075 19.8692 0 12.8 0C5.73075 0 0 5.73075 0 12.8C0 19.8692 5.73075 25.6 12.8 25.6Z" fill="#00AED6"/>
<path d="M12.8 25.6C19.8692 25.6 25.6 19.8692 25.6 12.8C25.6 5.73075 19.8692 0 12.8 0C5.73075 0 0 5.73075 0 12.8C0 19.8692 5.73075 25.6 12.8 25.6Z" fill="#00AED6"/>
<path fill-rule="evenodd" clip-rule="evenodd" d="M20.3 12.4C20.2 10.8 18.8001 9.50003 17.2001 9.60003H9.10005C8.80005 9.60003 8.60005 9.40003 8.60005 9.10003C8.60005 8.80003 8.80005 8.60003 9.10005 8.60003H17.3C17.3 7.50003 16.5001 6.50002 15.4001 6.20002C13.0001 5.80002 10.6001 5.80002 8.20005 6.20002C6.80005 6.50002 5.80005 7.70002 5.60005 9.00002C5.20005 11.5 5.20005 14.1 5.60005 16.6C5.90005 18.1 7.00005 19.2 8.50005 19.4C11.5001 19.8 14.5001 19.8 17.4001 19.4C18.7001 19.1 19.7001 18 19.9001 16.7C20.2001 15.3 20.3 13.9 20.3 12.4ZM17.6 14.2V14.7C17.6 15 17.4 15.2 17.1 15.2C16.8 15.2 16.6 15 16.6 14.7V14.2C16.4 14.1 16.3 13.8 16.3 13.6C16.3 13.2 16.7 12.8 17.1 12.8C17.5 12.8 17.9001 13.2 17.9001 13.6C17.9001 13.8 17.8 14 17.6 14.2Z" fill="white"/>
<path d="M35.7 19.2C36.8 20.7 38.6 21.6 40.5 21.5C42.7 21.5 44.4 20.1 44.4 18.1V17.1H44.3C43.1 18.3 41.4 18.9 39.7 18.8C37 18.9 34.5 17.5 33.1 15.2C31.7 12.9 31.7 10 33 7.70003C34.3 5.40003 36.8 3.90003 39.5 4.00003C41.2 3.90003 42.9 4.50003 44.2 5.70003H44.3V4.20003H48.1V18.1C48.1 22.1 44.9 24.9 40.4 24.9C37.5 25.1 34.6 23.8 32.8 21.5L35.7 19.2ZM44.2 10.5C44.2 8.90003 42.4 7.40003 40.3 7.40003C37.7 7.40003 36 9.00003 36 11.3C35.9 12.4 36.3 13.5 37.1 14.3C37.9 15.1 39 15.5 40.1 15.3C42.3 15.3 44.1 13.9 44.1 12.2V10.5H44.2ZM58.2 3.80003C62.8 3.80003 66.2 7.10003 66.2 11.3C66.2 15.5 62.8 18.8 58.2 18.8C55.4 19 52.7 17.6 51.3 15.2C49.8 12.8 49.8 9.80003 51.3 7.40003C52.8 5.00003 55.4 3.60003 58.2 3.80003ZM58.2 7.30003C56 7.30003 54.2 9.10003 54.2 11.3C54.2 13.5 56 15.3 58.2 15.3C60.4 15.3 62.2 13.5 62.2 11.3C62.3 10.2 61.8 9.20003 61.1 8.40003C60.3 7.70003 59.3 7.30003 58.2 7.30003ZM68.4 4.20003H72.2V5.50003H72.3C73.5 4.40003 75.2 3.80003 76.9 3.80003C81 3.90003 84.3 7.20003 84.3 11.3C84.3 15.4 81 18.7 76.9 18.8C75.3 18.8 73.7 18.3 72.4 17.3H72.3V24.4H68.3V4.20003H68.4ZM76.2 7.30003C74.1 7.30003 72.3 8.80003 72.3 10.4V12.2C72.3 13.9 74 15.3 76.2 15.3C78.4 15.3 80.2 13.5 80.2 11.3C80.2 9.10003 78.4 7.30003 76.2 7.30003ZM91.7 10C94.3 9.70003 95.1 9.30003 95.1 8.50003C95.1 7.60003 94.1 7.00003 92.6 7.00003C91 6.90003 89.4 7.90003 89.1 9.60003L85.3 8.80003C85.8 5.90003 88.8 3.80003 92.5 3.80003C96.7 3.80003 99.2 5.90003 99.2 9.40003V18.5H95.6V16.9H95.5C94.3 18.3 92.5 19 90.7 18.9C87.6 18.9 85.4 17.2 85.4 14.7C85.5 12 87.2 10.6 91.7 10ZM95.4 11.5C95 12 94.2 12.3 92.3 12.7C90 13.1 89.1 13.6 89.1 14.4C89.1 15.3 89.8 15.6 91.3 15.6C93.6 15.6 95.4 14.6 95.4 13.2V11.5ZM106.4 17.7L99.8 4.20003H104.2L108.5 13.5H108.6L112.9 4.20003H117.3L107.4 24.5H103L106.4 17.7Z" fill="black"/>
</svg>
