<?xml version="1.0" encoding="UTF-8"?><svg id="a" xmlns="http://www.w3.org/2000/svg" width='90' height='60' viewBox="0 0 667.34 667.35"><defs><style>.b{fill:#fff;}.c{fill:#21a6de;}</style></defs><path class="c" d="M507.42,666.03l-344.95,1.32c-88.66,.34-160.81-71.26-161.15-159.93L0,162.47C-.34,73.81,71.26,1.66,159.92,1.32L504.88,0c88.66-.34,160.81,71.26,161.15,159.93l1.32,344.95c.34,88.66-71.26,160.81-159.92,161.15Z"/><path class="b" d="M365.82,297.94c26.02-15.71,42.22-42.47,42.11-71.46-.25-64.66-63.39-87.55-63.39-87.55-11.62-6.77-25.93-10.37-41.77-10.31-1.17,0-3.27,.05-4.45,.05,16.04-12.15,36.92-19.7,58.08-19.78,49.29-.19,86.75,46.49,86.91,90.29,.19,50.98-35.69,90.68-77.48,98.76m-31.7-.07c-32.06-6.16-58.46-30.34-69.89-59.04,11.28,10.97,27.29,18.44,47.7,18.36,32.57-.12,63.47-25.25,63.32-62.26-.07-18.22-6.57-30.11-6.57-30.11,13.67,13.77,22.35,33.12,22.44,56.72,.13,33.2-24.58,64.23-57,76.32m-28.63,5.36c-38.26,.15-78.79-36.72-78.96-82.79-.09-22.53,6.89-45.02,24.7-60.21-3.15,6.67-5.29,14.59-6.14,24.13-.42,3.46-.65,7.01-.64,10.74,.19,49.77,27.63,90.93,70.41,107.51-3.08,.4-6.22,.61-9.36,.62m3.08-161.12c27.81-.11,49.42,27.16,49.51,51.56,.13,33-19.93,55.19-48.09,55.29-25.24,.1-47.87-23.2-48-56.48-.1-27.45,20.21-50.28,46.57-50.38m39.47-43.81c-25.97,.1-62.82,11.45-84.48,38.79-34.39,15.2-59.45,48.91-59.31,85.71,.22,57.02,48.92,90.93,107.45,90.7,9.64-.04,18.81-2.2,27.37-4.46,6.3,.99,12.87,1.51,19.63,1.48,55.24-.21,103.73-45.19,103.51-103.74-.23-60.35-48.42-108.73-114.15-108.48"/><g><path class="b" d="M262.9,440.53c.16,40.95-19.72,69.11-57.01,69.26l-34.36,.13,.19,49.35c0,2.35-1.45,3.93-3.65,3.94l-20.97,.08c-2.2,0-3.65-1.56-3.66-3.91l-.73-191.09,63.36-.24c33.64-.13,56.65,25.76,56.83,72.49m-28.28-.41c-.14-37.53-20.39-44.28-37.21-44.21l-26.31,.1,.33,86.08,26.31-.1c16.82-.06,37.03-4.6,36.89-41.87"/><path class="b" d="M391.86,416.68l.3,77.96c0,1.57-.97,2.63-2.91,3.67-14.12,5.85-32.86,10.9-52.6,10.97-42.65,.16-53.46-20.26-53.55-42.58-.07-19.43,10.57-41.77,53.23-41.93,8.77-.03,18.29,1.23,27.3,2.78l-.04-10.77c-.04-11.01-9.09-21.49-29.08-21.41-11.95,.05-25.82,3.76-36.29,8.02-2.44,1.06-3.9,.01-4.64-2.35l-4.93-17.3c-.75-2.35-.02-4.2,2.16-5,13.87-6.34,27.75-11.13,43.33-11.19,20.24-.08,57.55,5.29,57.72,49.13m-28.14,35.82c-11.7-2.32-17.79-2.58-27.3-2.78-9.51-.24-24.61,.09-24.54,17.93,.07,17.84,14.69,17.54,24.67,16.71,9.99-.57,14.61-1.11,27.28-4.82l-.1-27.04Z"/><g><path class="b" d="M472.41,510.48c35.07-.13,52.9-29.29,52.9-29.29l-.44-116.08-28.09,.11,.41,106.73s-8.73,10.73-24.88,10.79c-17.78,.07-27.66-14.59-27.71-27.65l-.34-89.67-28.18,.11,.34,89.67c.1,26.96,19.09,55.42,56,55.28"/><path class="b" d="M497.34,513.59c.07,18.93-11.84,29.67-37.34,30.56l.11,28.81c28.92-.11,65.5-16,65.33-59.48l-.54-141.22-28.11,.11,.54,141.22Z"/></g></g></svg>